<svg width="66" height="40" viewBox="0 0 66 40" fill="none" xmlns="http://www.w3.org/2000/svg">
<path d="M31.224 16.9508C31.3898 16.9508 31.5665 16.9619 31.7544 16.984C31.9533 16.995 32.1245 17.0171 32.2682 17.0503L32.0858 18.3927C31.9422 18.3596 31.782 18.332 31.6052 18.3099C31.4395 18.2878 31.2793 18.2767 31.1246 18.2767C30.7821 18.2767 30.4561 18.3485 30.1467 18.4922C29.8374 18.6358 29.5611 18.8402 29.3181 19.1054C29.075 19.3595 28.8816 19.6689 28.738 20.0335C28.6054 20.3981 28.5391 20.8069 28.5391 21.26V26H27.0806V17.1166H28.2739L28.4397 18.7408H28.506C28.6938 18.4093 28.9203 18.111 29.1855 17.8458C29.4507 17.5696 29.7545 17.3541 30.097 17.1994C30.4395 17.0337 30.8152 16.9508 31.224 16.9508ZM35.5529 24.8589C35.5529 25.0532 35.4855 25.2204 35.3506 25.3607C35.2211 25.501 35.0566 25.5711 34.8569 25.5711C34.6573 25.5711 34.4874 25.5037 34.3471 25.3688C34.2122 25.2231 34.1448 25.0532 34.1448 24.8589C34.1448 24.6647 34.2095 24.4948 34.339 24.3491C34.4685 24.2035 34.625 24.1306 34.8084 24.1306C35.0242 24.1306 35.2022 24.2008 35.3425 24.341C35.4828 24.4813 35.5529 24.6539 35.5529 24.8589ZM42.4842 26H40.9926V15.4758H37.2967V14.1665H46.1635V15.4758H42.4842V26ZM54.307 21.5417C54.307 22.282 54.2076 22.9394 54.0087 23.514C53.8208 24.0775 53.5446 24.5581 53.18 24.9559C52.8264 25.3536 52.39 25.6575 51.8707 25.8674C51.3624 26.0663 50.7934 26.1657 50.1636 26.1657C49.578 26.1657 49.0366 26.0663 48.5394 25.8674C48.0422 25.6575 47.6113 25.3536 47.2467 24.9559C46.882 24.5581 46.5948 24.0775 46.3848 23.514C46.1859 22.9394 46.0865 22.282 46.0865 21.5417C46.0865 20.5583 46.2522 19.7297 46.5837 19.0557C46.9152 18.3706 47.3903 17.8513 48.009 17.4978C48.6278 17.1331 49.3625 16.9508 50.2133 16.9508C51.0199 16.9508 51.727 17.1331 52.3347 17.4978C52.9535 17.8513 53.4341 18.3706 53.7766 19.0557C54.1302 19.7297 54.307 20.5583 54.307 21.5417ZM47.5947 21.5417C47.5947 22.2378 47.6831 22.8455 47.8599 23.3648C48.0477 23.8731 48.335 24.2653 48.7217 24.5415C49.1084 24.8178 49.6001 24.9559 50.1968 24.9559C50.7934 24.9559 51.2851 24.8178 51.6718 24.5415C52.0585 24.2653 52.3403 23.8731 52.5171 23.3648C52.7049 22.8455 52.7988 22.2378 52.7988 21.5417C52.7988 20.8346 52.7049 20.2324 52.5171 19.7352C52.3292 19.238 52.0419 18.8568 51.6552 18.5916C51.2796 18.3154 50.7879 18.1773 50.1802 18.1773C49.2742 18.1773 48.6167 18.4756 48.2079 19.0722C47.7991 19.6689 47.5947 20.492 47.5947 21.5417ZM60.8448 16.9508C61.9386 16.9508 62.817 17.332 63.48 18.0944C64.1539 18.8568 64.4909 20.0059 64.4909 21.5417C64.4909 22.5472 64.3363 23.3979 64.0269 24.094C63.7286 24.7791 63.3032 25.2984 62.7507 25.652C62.2093 25.9945 61.5685 26.1657 60.8282 26.1657C60.3752 26.1657 59.9719 26.105 59.6183 25.9834C59.2647 25.8619 58.9609 25.7072 58.7068 25.5194C58.4637 25.3205 58.2538 25.105 58.077 24.873H57.9775C57.9996 25.0608 58.0217 25.2984 58.0438 25.5857C58.0659 25.8729 58.077 26.1215 58.077 26.3315V29.9777H56.6185V17.1166H57.8118L58.0107 18.3264H58.077C58.2538 18.0723 58.4637 17.8403 58.7068 17.6303C58.9609 17.4204 59.2592 17.2547 59.6017 17.1331C59.9553 17.0116 60.3696 16.9508 60.8448 16.9508ZM60.5796 18.1773C59.9829 18.1773 59.5023 18.2933 59.1377 18.5253C58.7731 18.7463 58.5079 19.0833 58.3421 19.5363C58.1764 19.9893 58.088 20.5639 58.077 21.26V21.5417C58.077 22.2709 58.1543 22.8897 58.309 23.3979C58.4637 23.9062 58.7233 24.2929 59.088 24.5581C59.4636 24.8233 59.9719 24.9559 60.6127 24.9559C61.1541 24.9559 61.5961 24.8067 61.9386 24.5084C62.2922 24.2101 62.5518 23.8068 62.7176 23.2985C62.8944 22.7792 62.9827 22.1881 62.9827 21.5251C62.9827 20.5086 62.7839 19.6965 62.3861 19.0888C61.9994 18.4811 61.3972 18.1773 60.5796 18.1773Z" fill="#A5A5A5"/>
<path d="M12.0879 30.9997V25.821C16.4067 25.821 19.9207 22.6582 19.9207 18.7645C19.9207 14.8732 16.4067 11.7128 12.0879 11.7128V6.5293C19.58 6.5293 25.6719 12.0201 25.6719 18.7645C25.6719 25.5113 19.58 30.9997 12.0879 30.9997Z" fill="#05396B"/>
<g filter="url(#filter0_d_0_5330)">
<path d="M0.999595 5.00022H1.07494C7.70286 5.00022 13.0742 10.7364 13.0742 17.8145L13.0742 31H12.9989C6.37095 31 0.999595 25.2638 0.999595 18.1857L0.999595 5.00022Z" fill="#239E9E"/>
</g>
<defs>
<filter id="filter0_d_0_5330" x="0" y="0.000244141" width="22.0742" height="35.9998" filterUnits="userSpaceOnUse" color-interpolation-filters="sRGB">
<feFlood flood-opacity="0" result="BackgroundImageFix"/>
<feColorMatrix in="SourceAlpha" type="matrix" values="0 0 0 0 0 0 0 0 0 0 0 0 0 0 0 0 0 0 127 0" result="hardAlpha"/>
<feOffset dx="4"/>
<feGaussianBlur stdDeviation="2.5"/>
<feComposite in2="hardAlpha" operator="out"/>
<feColorMatrix type="matrix" values="0 0 0 0 0 0 0 0 0 0 0 0 0 0 0 0 0 0 0.27 0"/>
<feBlend mode="normal" in2="BackgroundImageFix" result="effect1_dropShadow_0_5330"/>
<feBlend mode="normal" in="SourceGraphic" in2="effect1_dropShadow_0_5330" result="shape"/>
</filter>
</defs>
</svg>
