<svg width="1982" height="1206" viewBox="0 0 1982 1206" fill="none" xmlns="http://www.w3.org/2000/svg">
<path d="M602.345 1097.92H206.549V1140.36H602.345V1097.92Z" fill="#E0E0E0"/>
<path d="M1239.11 1097.92H843.314V1140.36H1239.11V1097.92Z" fill="#E0E0E0"/>
<path d="M1836.41 1097.92H1440.61V1140.36H1836.41V1097.92Z" fill="#E0E0E0"/>
<path d="M702.374 648.715C660.605 638.238 624.102 611.824 603.814 577.4C593.787 560.455 587.658 541.491 585.87 521.884C584.081 502.277 586.679 482.517 593.475 464.038C604.229 435.213 624.989 409.852 633.886 380.5C643.975 347.24 637.961 311.873 631.724 277.809C625.488 243.745 619.141 208.517 628.62 175.091C638.099 141.664 667.867 110.233 706.227 107.85C741.788 105.66 774.604 129.303 789.377 158.433C804.15 187.563 804.289 220.907 800.824 252.67C797.36 284.433 790.625 316.419 792.731 348.293C797.027 412.984 837.355 473.905 832.616 538.569C830.149 572.244 815.653 593.78 790.819 619.114C769.421 640.954 733.833 655.312 702.319 648.604" fill="#EBEBEB"/>
<path d="M715.096 969.288C714.708 969.288 714.431 825.964 714.431 649.214C714.431 472.464 714.708 329.113 715.096 329.113C715.484 329.113 715.762 472.409 715.762 649.214C715.762 826.02 715.318 969.288 715.096 969.288Z" fill="#E0E0E0"/>
<path d="M713.018 536.879C710.839 535.31 708.791 533.568 706.892 531.669C703.234 528.343 698.245 523.631 693.034 518.254C687.823 512.877 682.973 508.109 679.48 504.617C677.471 502.848 675.616 500.91 673.937 498.824C676.107 500.405 678.155 502.147 680.062 504.035C683.721 507.361 688.71 512.073 693.921 517.45C699.132 522.827 703.982 527.594 707.474 531.087C709.468 532.873 711.321 534.809 713.018 536.879Z" fill="#E0E0E0"/>
<path d="M828.098 942.707H605.56V968.872H828.098V942.707Z" fill="#E0E0E0"/>
<path d="M717.036 402.784C721.838 401.67 726.431 399.799 730.645 397.241C734.969 394.514 738.678 390.918 741.538 386.681C744.932 381.75 746.977 376.017 747.469 370.051C747.469 369.829 747.469 369.635 747.469 369.469L748.245 370.106C741.999 371.157 736.256 374.188 731.865 378.754C728.339 382.296 725.266 386.262 722.718 390.561C720.529 394.164 719.004 397.213 717.951 399.292C717.478 400.427 716.913 401.521 716.26 402.563C716.543 401.377 716.952 400.225 717.48 399.126C718.759 396.043 720.231 393.043 721.887 390.145C724.364 385.72 727.411 381.638 730.95 378.006C735.507 373.187 741.511 369.985 748.051 368.887H748.883V369.635V370.217C748.398 376.417 746.254 382.372 742.674 387.457C739.694 391.807 735.796 395.449 731.255 398.128C728.125 400.035 724.709 401.429 721.138 402.258C720.164 402.506 719.173 402.682 718.173 402.784C717.424 402.812 717.064 402.84 717.036 402.784Z" fill="#E0E0E0"/>
<path d="M717.037 402.785C719.819 398.823 722.945 395.113 726.377 391.698C729.535 387.959 732.992 384.482 736.715 381.305C733.954 385.275 730.837 388.986 727.403 392.391C724.255 396.149 720.786 399.627 717.037 402.785Z" fill="#E0E0E0"/>
<path d="M1356.27 663.739C1310.7 653.761 1270.85 628.566 1248.7 595.75C1226.55 562.933 1222.34 522.938 1237.42 487.654C1249.14 460.187 1271.82 435.99 1281.52 408.052C1292.6 376.288 1285.98 342.64 1279.16 310.184C1272.34 277.727 1265.44 244.162 1275.75 212.26C1282.01 194.439 1293.38 178.858 1308.45 167.466C1323.51 156.073 1341.6 149.374 1360.45 148.207C1399.26 146.1 1435.1 168.662 1451.28 196.406C1467.47 224.151 1467.58 255.97 1463.81 286.319C1460.04 316.669 1452.72 347.019 1454.97 377.48C1459.65 439.15 1503.69 497.189 1498.51 558.803C1495.74 590.899 1479.97 611.465 1452.89 635.579C1429.52 656.394 1390.69 670.086 1356.27 663.683" fill="#EBEBEB"/>
<path d="M1370.02 969.287C1369.6 969.287 1369.27 832.699 1369.27 664.236C1369.27 495.774 1369.6 359.186 1370.02 359.186C1370.43 359.186 1370.74 495.746 1370.74 664.236C1370.74 832.727 1370.4 969.287 1370.02 969.287Z" fill="#E0E0E0"/>
<path d="M1367.91 557.196C1365.55 555.715 1363.31 554.057 1361.2 552.234C1357.21 549.047 1351.78 544.557 1346.07 539.429C1340.36 534.302 1334.98 529.756 1331.27 526.43C1329.14 524.742 1327.15 522.889 1325.31 520.887C1327.67 522.367 1329.91 524.026 1332.02 525.848C1336.01 529.035 1341.44 533.526 1347.18 538.653C1352.91 543.781 1358.26 548.326 1361.95 551.625C1364.08 553.326 1366.07 555.188 1367.91 557.196Z" fill="#E0E0E0"/>
<path d="M1493.52 943.955H1250.61V968.872H1493.52V943.955Z" fill="#E0E0E0"/>
<path d="M1372.29 429.393C1377.44 428.349 1382.43 426.605 1387.12 424.21C1391.73 421.704 1395.79 418.28 1399.04 414.149C1402.68 409.572 1404.93 404.036 1405.49 398.212V397.657L1406.35 398.267C1399.7 399.188 1393.47 402.085 1388.48 406.582C1384.68 409.876 1381.32 413.649 1378.5 417.808C1376.11 421.244 1374.42 424.155 1373.29 426.123C1372.76 427.208 1372.13 428.246 1371.43 429.227C1371.75 428.09 1372.2 426.993 1372.76 425.956C1374.16 422.992 1375.78 420.13 1377.58 417.392C1380.33 413.101 1383.66 409.212 1387.48 405.834C1392.68 401.12 1399.18 398.087 1406.13 397.131H1407.05V397.852V398.406C1406.46 404.435 1404.09 410.155 1400.26 414.842C1396.86 419.072 1392.61 422.538 1387.78 425.014C1384.29 426.829 1380.55 428.153 1376.7 428.95C1375.63 429.178 1374.54 429.344 1373.45 429.449C1373.06 429.469 1372.67 429.45 1372.29 429.393Z" fill="#E0E0E0"/>
<path d="M1372.29 429.393C1375.35 425.55 1378.75 421.996 1382.46 418.778C1385.93 415.154 1389.72 411.843 1393.77 408.883C1390.7 412.72 1387.3 416.273 1383.6 419.498C1380.11 423.104 1376.33 426.413 1372.29 429.393Z" fill="#E0E0E0"/>
<path d="M1789.71 154.841C1796.24 121.163 1774.24 88.5684 1740.56 82.0389C1706.88 75.5095 1674.28 97.5179 1667.76 131.196C1661.23 164.874 1683.23 197.469 1716.91 203.998C1750.59 210.528 1783.19 188.519 1789.71 154.841Z" fill="#EBEBEB"/>
<path d="M1717.42 278.033C1716.76 269.494 1716.54 260.928 1716.75 252.367C1716.54 243.806 1716.76 235.239 1717.42 226.701C1718.06 235.24 1718.27 243.806 1718.06 252.367C1718.27 260.927 1718.06 269.493 1717.42 278.033Z" fill="#E0E0E0"/>
<path d="M1681.55 212.232C1681.86 212.398 1676.01 223.125 1668.5 236.179C1660.99 249.234 1654.64 259.628 1654.28 259.461C1653.92 259.295 1659.82 248.569 1667.36 235.514C1674.9 222.459 1681.25 211.955 1681.55 212.232Z" fill="#E0E0E0"/>
<path d="M1644.77 189.311C1640.21 193.77 1635.35 197.909 1630.22 201.7C1625.38 205.836 1620.26 209.633 1614.89 213.064C1619.44 208.601 1624.29 204.461 1629.42 200.674C1634.27 196.545 1639.4 192.748 1644.77 189.311Z" fill="#E0E0E0"/>
<path d="M1779.42 252.726C1778.68 250.685 1778.13 248.578 1777.79 246.434C1776.9 242.498 1775.62 237.121 1774.04 231.19C1772.46 225.258 1770.83 220.103 1769.64 216.139C1768.88 214.096 1768.29 211.991 1767.89 209.848C1769 211.735 1769.88 213.744 1770.52 215.834C1771.94 219.604 1773.68 224.898 1775.29 230.857C1776.9 236.816 1778.06 242.276 1778.7 246.24C1779.19 248.367 1779.43 250.543 1779.42 252.726Z" fill="#E0E0E0"/>
<path d="M1842.59 207.964C1836.18 203.241 1830.05 198.161 1824.21 192.747C1818.08 187.668 1812.22 182.265 1806.67 176.561C1813.08 181.287 1819.22 186.367 1825.07 191.777C1831.21 196.833 1837.06 202.238 1842.59 207.964Z" fill="#E0E0E0"/>
<path d="M1866.76 146.432C1864.23 146.257 1861.73 145.924 1859.25 145.434C1854.64 144.658 1848.16 143.661 1841.2 142.857C1834.24 142.053 1827.68 141.554 1823.02 141.277C1820.49 141.244 1817.97 141.022 1815.48 140.612C1818 140.269 1820.54 140.176 1823.07 140.335C1827.76 140.335 1834.16 140.75 1841.34 141.554C1848.52 142.358 1854.84 143.522 1859.44 144.52C1861.94 144.901 1864.39 145.542 1866.76 146.432Z" fill="#E0E0E0"/>
<path d="M1866.84 85.8983C1866.84 86.2586 1853.45 89.8341 1836.77 93.9084C1820.08 97.9828 1806.44 100.976 1806.28 100.644C1806.11 100.311 1819.67 96.7078 1836.35 92.6334C1853.04 88.5591 1866.76 85.5657 1866.84 85.8983Z" fill="#E0E0E0"/>
<path d="M1796.52 15.3884C1796.83 15.6101 1790.4 25.8653 1782.14 38.3656C1773.88 50.8659 1766.95 60.7885 1766.64 60.539C1766.34 60.2896 1772.8 50.0621 1781.06 37.5895C1789.32 25.117 1796.22 15.1667 1796.52 15.3884Z" fill="#E0E0E0"/>
<path d="M1726.76 0.669922C1726.97 3.51168 1726.97 6.36493 1726.76 9.20668C1726.76 14.4729 1726.59 21.7624 1726.59 29.8003C1726.59 37.8381 1726.59 45.0999 1726.81 50.3661C1727.02 53.2079 1727.02 56.0611 1726.81 58.9029C1726.3 56.0949 1726.02 53.2485 1725.98 50.3938C1725.65 45.1276 1725.37 37.8381 1725.37 29.8003C1725.37 21.7624 1725.62 14.4452 1725.93 9.17897C1725.97 6.32445 1726.25 3.47825 1726.76 0.669922Z" fill="#E0E0E0"/>
<path d="M1673.93 66.4704C1668.67 59.1553 1663.79 51.5789 1659.3 43.7703C1651.51 31.0483 1645.44 20.5991 1645.77 20.4051C1646.1 20.2111 1652.62 30.3831 1660.4 43.1051C1668.19 55.8271 1674.24 66.2763 1673.93 66.4704Z" fill="#E0E0E0"/>
<path d="M1642.36 93.2992C1640.12 93.1904 1637.9 92.8372 1635.74 92.246C1631.69 91.4145 1626.15 90.0563 1620.1 88.2548C1614.06 86.4532 1608.63 84.5961 1604.78 83.1271C1602.64 82.4199 1600.59 81.4909 1598.65 80.3555C1600.84 80.778 1603 81.3901 1605.08 82.1848C1609.02 83.4597 1614.42 85.1782 1620.46 86.9521C1626.51 88.7259 1631.97 90.2226 1635.96 91.3036C1638.14 91.7966 1640.28 92.4639 1642.36 93.2992Z" fill="#E0E0E0"/>
<path d="M1628.56 141.11C1622.01 142.392 1615.38 143.243 1608.71 143.66C1602.09 144.53 1595.41 144.956 1588.73 144.935C1595.28 143.654 1601.91 142.793 1608.57 142.357C1615.2 141.504 1621.88 141.088 1628.56 141.11Z" fill="#E0E0E0"/>
<path d="M505.89 106.16C507.109 97.4012 494.803 90.2226 485.463 89.5296C481.056 89.1693 476.455 89.8345 472.269 88.3655C463.178 85.2058 459.547 73.4816 450.678 69.7398C444.054 66.9682 436.432 69.435 430.001 72.6778C423.571 75.9207 417.252 79.9673 410.073 80.4385C403.809 80.8266 397.046 78.4984 391.586 81.5472C387.511 83.82 385.377 88.5318 381.636 91.2758C377.728 93.695 373.203 94.9275 368.609 94.8235C364.048 94.7039 359.506 95.4468 355.221 97.0132C351.064 98.8979 347.627 103.277 348.486 107.767L505.89 106.16Z" fill="#EBEBEB"/>
<path d="M1746.16 405.973C1747.35 397.214 1735.07 390.008 1725.73 389.343C1721.3 388.982 1716.7 389.675 1712.51 388.206C1703.42 385.046 1699.82 373.295 1690.95 369.58C1684.32 366.809 1676.7 369.276 1670.27 372.491C1663.84 375.706 1657.49 379.808 1650.32 380.251C1644.08 380.667 1637.29 378.339 1631.83 381.388C1627.78 383.661 1625.65 388.345 1621.88 391.116C1617.98 393.527 1613.46 394.75 1608.88 394.636C1604.31 394.533 1599.76 395.275 1595.46 396.826C1591.33 398.739 1587.9 403.118 1588.76 407.608L1746.16 405.973Z" fill="#EBEBEB"/>
<path d="M427.036 246.739C429.115 231.661 407.828 219.244 391.835 217.969C384.186 217.332 376.286 218.524 369.052 216.001C353.392 210.458 347.128 190.308 331.856 183.878C320.437 179.055 307.299 183.351 296.213 188.922C285.126 194.493 274.205 201.505 261.844 202.282C251.09 202.974 239.393 198.983 229.97 204.249C222.957 208.158 219.299 216.251 212.813 220.88C206.327 225.508 198.262 226.423 190.39 226.95C182.518 227.476 174.425 227.448 167.274 230.719C160.123 233.99 154.22 241.556 155.716 249.289L427.036 246.739Z" fill="#F5F5F5"/>
<path d="M1159.26 204.665C1161.06 191.555 1142.63 180.745 1128.63 179.72C1122.01 179.193 1115.1 180.191 1108.81 178.001C1095.2 173.262 1089.77 155.662 1076.47 150.063C1066.55 145.878 1055.1 149.592 1045.48 154.442C1035.86 159.293 1026.33 165.529 1015.55 166.083C1006.21 166.693 996.145 163.312 987.83 167.774C981.704 171.183 978.517 178.223 972.89 182.381C967.264 186.538 960.224 187.287 953.488 187.675C946.753 188.063 939.63 188.09 933.394 190.945C927.158 193.8 922.03 200.369 923.305 207.076L1159.26 204.665Z" fill="#F5F5F5"/>
<path d="M1981.75 974.83C1981.75 975.218 1538.15 975.551 991.072 975.551C443.998 975.551 0.308105 975.218 0.308105 974.83C0.308105 974.442 443.777 974.109 991.072 974.109C1538.37 974.109 1981.75 974.414 1981.75 974.83Z" fill="#263238"/>
<path d="M192.607 974.831H148.565L154.33 953.434H192.607V974.831Z" fill="#E0E0E0"/>
<path d="M192.607 974.831C192.566 974.295 192.566 973.758 192.607 973.223V968.899L192.33 953.433L192.857 953.988L154.58 954.154L155.273 953.627L154.441 956.787C152.695 963.162 151.032 969.315 149.48 974.997L148.565 974.165C161.204 974.165 172.124 974.359 179.941 974.498L189.17 974.692C190.318 974.682 191.466 974.737 192.607 974.858C191.569 974.992 190.522 975.047 189.475 975.025L180.412 975.219C172.623 975.357 161.509 975.496 148.565 975.551H147.678L147.9 974.664L152.778 956.427L153.637 953.267V952.74H154.192L192.469 952.934H193.023V953.461C193.023 960.196 192.829 965.601 192.718 969.259V973.472C192.75 973.928 192.713 974.386 192.607 974.831Z" fill="#263238"/>
<path d="M1929.59 974.831H1885.55L1891.31 953.434H1929.59V974.831Z" fill="#E0E0E0"/>
<path d="M1929.59 974.831C1929.55 974.296 1929.55 973.758 1929.59 973.223C1929.59 972.059 1929.59 970.646 1929.59 968.899C1929.59 965.019 1929.42 959.781 1929.31 953.433L1929.84 953.988L1891.56 954.154L1892.26 953.628C1891.98 954.625 1891.7 955.706 1891.42 956.787C1889.68 963.162 1888.01 969.315 1886.46 974.997L1885.8 974.138C1898.44 974.138 1909.36 974.332 1917.17 974.47L1926.4 974.665C1927.55 974.656 1928.7 974.711 1929.84 974.831C1928.8 974.964 1927.75 975.02 1926.71 974.997L1917.64 975.191C1909.86 975.33 1898.74 975.468 1885.8 975.524H1884.74L1884.97 974.637L1889.84 956.399C1890.15 955.318 1890.43 954.237 1890.7 953.24V952.713H1891.26L1929.53 952.907H1930.09V953.433C1930.09 960.169 1929.89 965.573 1929.78 969.232C1929.78 970.923 1929.78 972.309 1929.78 973.445C1929.77 973.913 1929.71 974.378 1929.59 974.831Z" fill="#263238"/>
<path d="M770.53 953.434H744.365H732.253H706.088L700.323 974.831H732.253H744.365H776.295L770.53 953.434Z" fill="#E0E0E0"/>
<path d="M770.53 953.433C770.717 953.875 770.874 954.329 771.001 954.792L772.221 958.921C773.329 962.746 774.854 968.068 776.738 974.692L776.905 975.274H776.295C759.665 975.274 734.359 975.524 706.116 975.524H699.381L699.63 974.609C701.654 967.153 703.622 959.947 705.423 953.24L705.562 952.713H706.088L752.431 952.99L765.846 953.212H769.366C769.753 953.173 770.143 953.173 770.53 953.212H769.227H765.596L752.265 953.433L706.088 953.711L706.754 953.212C704.952 959.919 703.04 967.07 701.016 974.581L700.323 973.694H706.116C734.359 973.694 759.665 973.695 776.295 973.944L775.852 974.526C774.161 967.957 772.83 962.663 771.86 958.838C771.445 957.092 771.084 955.679 770.835 954.57C770.712 954.197 770.61 953.818 770.53 953.433Z" fill="#263238"/>
<path d="M1372.23 953.434H1346.1H1333.96H1307.82L1302.05 974.831H1333.96H1346.1H1378L1372.23 953.434Z" fill="#E0E0E0"/>
<path d="M1372.23 953.433C1372.44 953.869 1372.59 954.324 1372.7 954.792C1373.04 955.845 1373.43 957.231 1373.95 958.921C1375.03 962.746 1376.56 968.068 1378.44 974.692L1378.61 975.274H1378C1361.37 975.274 1336.09 975.524 1307.82 975.524H1301.11L1301.33 974.609C1303.39 967.153 1305.33 959.947 1307.15 953.24L1307.29 952.713H1307.82L1354.13 952.99L1367.55 953.212H1371.07C1371.46 953.171 1371.85 953.171 1372.23 953.212H1370.93H1367.33L1353.97 953.433L1307.82 953.711L1308.48 953.212L1302.69 974.997L1302 974.11H1307.76C1336.04 974.11 1361.31 974.11 1377.94 974.36L1377.5 974.942C1375.84 968.373 1374.48 963.079 1373.51 959.254C1373.09 957.508 1372.76 956.094 1372.48 954.986C1372.36 954.475 1372.28 953.956 1372.23 953.433Z" fill="#263238"/>
<path d="M1459.18 867.068H1386.67V974.831H1459.18V867.068Z" fill="#263238"/>
<path d="M1859.44 867.068H1786.93V974.831H1859.44V867.068Z" fill="#263238"/>
<path d="M1432.71 676.543C1432.71 676.543 1405.94 697.22 1403.86 704.454C1401.68 707.246 1400.52 710.697 1400.56 714.238C1400.12 719.508 1399.27 724.735 1398.01 729.87C1398.01 729.87 1385.9 753.124 1384.62 764.572C1383.35 776.019 1384.62 882.118 1384.62 882.118H1859.41V755.536L1846.25 723.44C1846.25 723.44 1842.95 703.678 1838.85 697.913C1834.74 692.148 1804.37 674.048 1804.37 674.048L1784.66 621.941C1777.84 606.392 1760.13 586.491 1734.46 586.602H1508.82C1489.64 586.602 1468.22 603.232 1461.92 615.483L1432.71 676.543Z" fill="#E0E0E0"/>
<g opacity="0.3">
<path d="M1384.07 804.566H1859.41V882.118H1384.62L1384.07 804.566Z" fill="black"/>
</g>
<path d="M1456.83 673.606H1786.85C1786.85 673.606 1782.72 597.994 1733.22 597.994C1683.71 597.994 1510.1 599.435 1510.1 599.435C1510.1 599.435 1488.45 595.306 1470.16 626.099C1463.26 637.915 1459.03 651.09 1457.74 664.708L1456.83 673.606Z" fill="#455A64"/>
<g opacity="0.3">
<path d="M1532.55 599.27L1592.67 673.606H1630.5L1567.05 599.27H1532.55Z" fill="white"/>
</g>
<g opacity="0.3">
<path d="M1510.1 599.436L1567.05 673.606H1576.51L1519.74 599.27L1510.1 599.436Z" fill="white"/>
</g>
<path d="M1786.85 673.605C1786.85 673.605 1787.32 674.382 1788.15 675.961L1791.87 682.946C1795.11 689.182 1799.88 698.301 1806.06 710.081V710.247C1806.06 723.44 1806.06 739.765 1806.22 758.668C1806.22 768.12 1806.22 778.236 1806.22 788.935C1806.2 794.782 1803.9 800.39 1799.8 804.563C1795.71 808.736 1790.14 811.145 1784.3 811.275H1622.68H1499.95H1472.24C1467.75 811.275 1463.42 811.275 1458.99 811.108C1456.79 810.853 1454.63 810.293 1452.58 809.445C1448.59 807.756 1445.18 804.933 1442.77 801.324C1441.6 799.609 1440.67 797.745 1440 795.781C1439 791.874 1438.64 787.829 1438.95 783.807C1438.95 776.019 1438.95 768.563 1438.95 761.412C1438.95 747.166 1438.95 734.277 1439.09 722.941C1439.09 717.398 1439.09 711.993 1438.95 707.143C1438.84 704.773 1439.32 702.413 1440.33 700.269C1441.22 698.218 1442.14 696.306 1443.11 694.559C1446.93 687.519 1450.42 682.392 1452.75 678.899L1455.52 674.964L1456.52 673.661C1456.52 673.661 1456.24 674.16 1455.66 675.047C1455.08 675.934 1454.16 677.32 1453.06 679.066C1450.78 682.586 1447.51 687.769 1443.66 694.809C1442.74 696.583 1441.83 698.467 1440.89 700.491C1439.92 702.56 1439.49 704.836 1439.61 707.115C1439.78 711.993 1439.81 717.259 1439.86 722.914C1439.86 734.278 1439.86 747.166 1439.86 761.412C1439.86 768.563 1439.86 776.028 1439.86 783.807C1439.55 787.718 1439.9 791.653 1440.89 795.448C1441.53 797.324 1442.41 799.112 1443.49 800.77C1444.65 802.439 1446.02 803.948 1447.57 805.26C1450.78 807.923 1454.7 809.572 1458.85 810C1463.06 810.221 1467.55 810 1471.99 810H1499.7H1622.43H1784.02C1789.56 809.891 1794.83 807.626 1798.72 803.686C1802.61 799.746 1804.8 794.443 1804.84 788.907C1804.84 778.209 1804.84 768.092 1804.84 758.641C1804.84 739.738 1804.84 723.412 1804.84 710.219V710.386L1790.98 683.085L1787.43 676.017C1787.21 674.465 1786.85 673.605 1786.85 673.605Z" fill="#263238"/>
<g opacity="0.3">
<path d="M1498.93 779.401L1549.43 726.711H1697.63L1749.21 779.401L1695.69 742.149H1551.03L1498.93 779.401Z" fill="black"/>
</g>
<path d="M1850.21 742.149C1850.21 742.149 1850.21 742.98 1850.21 744.616C1850.21 746.251 1850.21 748.718 1850.21 751.85C1850.21 758.224 1850.21 767.537 1850.38 779.4V779.76H1850.02L1776.87 779.954H1753.73H1749.21C1749.21 780.093 1748.18 779.65 1748.18 779.539L1747.55 779.04C1745.99 777.654 1744.55 776.268 1743.06 774.771L1734.19 765.874C1722.3 753.707 1709.85 740.707 1696.91 727.071L1697.43 727.293H1549.37L1549.87 727.071C1531.83 745.863 1514.86 763.546 1499.32 779.733L1499.15 779.927H1498.87L1389.75 779.65H1389.42V779.317C1389.42 769.006 1389.56 761.079 1389.58 755.647C1389.58 753.004 1389.58 750.981 1389.58 749.577C1389.58 750.935 1389.58 753.014 1389.58 755.647C1389.58 761.19 1389.58 769.006 1389.75 779.317L1389.42 778.984L1498.54 778.679L1498.1 778.873L1548.54 726.212L1548.73 726.018H1697.52L1697.74 726.239C1710.63 739.82 1723.04 752.847 1734.91 765.043L1743.75 773.968C1745.22 775.409 1746.69 776.739 1748.16 778.181L1748.71 778.624L1748.88 778.763C1748.88 778.763 1748.88 778.763 1748.88 778.957V778.818H1776.59L1849.74 779.04L1849.38 779.4C1849.38 767.537 1849.52 758.224 1849.54 751.85C1849.54 748.727 1849.54 746.315 1849.54 744.616C1850.13 742.98 1850.21 742.149 1850.21 742.149Z" fill="#263238"/>
<path d="M1689.42 742.148H1555.14V774.3H1689.42V742.148Z" fill="#455A64"/>
<path d="M1383.07 863.743L1399.89 843.343L1849.88 842.346L1859.47 870.922V897.752L1819.91 921.505H1431.55C1431.55 921.505 1385.15 903.489 1383.02 883.283L1383.07 863.743Z" fill="#263238"/>
<g opacity="0.3">
<path d="M1794.61 878.266H1456.83C1453.51 878.262 1450.22 878.912 1447.15 880.18C1444.09 881.447 1441.3 883.306 1438.95 885.651C1436.61 887.996 1434.74 890.781 1433.47 893.847C1432.2 896.912 1431.55 900.197 1431.55 903.516V920.34L1448.9 921.587H1816.59V900.217C1816.59 897.332 1816.02 894.476 1814.92 891.81C1813.81 889.145 1812.19 886.724 1810.15 884.685C1808.11 882.647 1805.69 881.03 1803.02 879.929C1800.35 878.827 1797.49 878.262 1794.61 878.266Z" fill="black"/>
</g>
<path d="M1468.08 904.514C1468.08 907.141 1467.31 909.711 1465.85 911.898C1464.4 914.085 1462.33 915.791 1459.9 916.8C1457.48 917.809 1454.81 918.076 1452.23 917.567C1449.65 917.057 1447.28 915.795 1445.42 913.94C1443.56 912.084 1442.3 909.718 1441.78 907.142C1441.27 904.566 1441.53 901.895 1442.53 899.468C1443.54 897.04 1445.24 894.965 1447.42 893.505C1449.61 892.045 1452.17 891.266 1454.8 891.266C1458.32 891.273 1461.68 892.67 1464.17 895.152C1466.66 897.635 1468.06 901 1468.08 904.514Z" fill="#455A64"/>
<path d="M1496.43 904.514C1496.44 907.142 1495.66 909.713 1494.21 911.901C1492.75 914.088 1490.68 915.794 1488.25 916.802C1485.82 917.811 1483.15 918.076 1480.57 917.565C1478 917.053 1475.63 915.788 1473.77 913.93C1471.91 912.071 1470.65 909.703 1470.13 907.125C1469.62 904.547 1469.89 901.876 1470.9 899.449C1471.9 897.022 1473.61 894.948 1475.8 893.492C1477.99 892.035 1480.56 891.26 1483.18 891.266C1486.7 891.273 1490.06 892.671 1492.54 895.154C1495.03 897.637 1496.43 901.003 1496.43 904.514Z" fill="#455A64"/>
<path d="M1507.41 920.339C1506.68 913.742 1506.44 907.099 1506.69 900.466C1506.44 893.843 1506.68 887.209 1507.41 880.621C1508.37 893.843 1508.37 907.117 1507.41 920.339Z" fill="#263238"/>
<path d="M1543.47 920.339C1542.74 913.742 1542.5 907.099 1542.75 900.466C1542.5 893.843 1542.74 887.209 1543.47 880.621C1544.43 893.843 1544.43 907.117 1543.47 920.339Z" fill="#263238"/>
<path d="M1579.53 920.339C1578.8 913.742 1578.56 907.099 1578.81 900.466C1578.56 893.843 1578.8 887.209 1579.53 880.621C1580.49 893.843 1580.49 907.117 1579.53 920.339Z" fill="#263238"/>
<path d="M1615.56 920.339C1614.6 907.117 1614.6 893.843 1615.56 880.621C1616.29 887.209 1616.53 893.843 1616.28 900.466C1616.53 907.099 1616.29 913.742 1615.56 920.339Z" fill="#263238"/>
<path d="M1651.62 920.339C1650.66 907.117 1650.66 893.843 1651.62 880.621C1652.35 887.209 1652.59 893.843 1652.34 900.466C1652.59 907.099 1652.35 913.742 1651.62 920.339Z" fill="#263238"/>
<path d="M1687.68 920.339C1686.72 907.117 1686.72 893.843 1687.68 880.621C1688.41 887.209 1688.65 893.843 1688.4 900.466C1688.65 907.099 1688.41 913.742 1687.68 920.339Z" fill="#263238"/>
<path d="M1723.74 920.339C1722.78 907.117 1722.78 893.843 1723.74 880.621C1724.7 893.843 1724.7 907.117 1723.74 920.339Z" fill="#263238"/>
<path d="M1759.8 920.339C1758.84 907.117 1758.84 893.843 1759.8 880.621C1760.76 893.843 1760.76 907.117 1759.8 920.339Z" fill="#263238"/>
<path d="M1795.63 920.339C1794.67 907.117 1794.67 893.843 1795.63 880.621C1796.37 887.209 1796.61 893.843 1796.36 900.466C1796.61 907.099 1796.36 913.742 1795.63 920.339Z" fill="#263238"/>
<path d="M1392.83 851.823L1460.37 852.045V843.203L1399.84 843.342L1392.83 851.823Z" fill="#103976"/>
<path d="M1852.87 851.381H1788.98V842.346H1849.82L1852.87 851.381Z" fill="#103976"/>
<path d="M1802.7 673.965C1802.7 674.353 1724.26 674.685 1627.5 674.685C1530.75 674.685 1452.31 674.353 1452.31 673.965C1452.31 673.577 1530.75 673.244 1627.5 673.244C1724.26 673.244 1802.7 673.577 1802.7 673.965Z" fill="#263238"/>
<path d="M1859.41 887.439C1859.4 887.775 1859.35 888.109 1859.27 888.437L1858.69 891.209C1857.68 894.914 1855.98 898.394 1853.67 901.464C1847.83 909.779 1834.72 918.094 1816.64 921.919L1623.24 922.168L1445.24 921.947C1434.9 922.017 1424.65 919.99 1415.11 915.988C1407.92 912.936 1401.34 908.596 1395.71 903.183C1392.15 899.795 1389.04 895.977 1386.42 891.819C1385.73 890.747 1385.1 889.637 1384.54 888.493C1384.35 888.104 1384.19 887.706 1384.04 887.301L1384.68 888.437C1385.09 889.186 1385.73 890.294 1386.67 891.68C1389.37 895.731 1392.53 899.452 1396.1 902.767C1401.72 908.04 1408.25 912.264 1415.36 915.239C1424.82 919.068 1434.95 920.953 1445.16 920.783L1623.15 920.589L1816.56 920.866C1834.41 917.152 1847.47 909.003 1853.34 900.993C1855.66 897.993 1857.41 894.592 1858.5 890.959C1858.77 889.768 1859.02 888.825 1859.19 888.188C1859.36 887.55 1859.41 887.439 1859.41 887.439Z" fill="#455A64"/>
<path d="M1400.39 716.094C1400.39 716.094 1407.74 705.728 1448.73 705.728H1798.82C1798.82 705.728 1828.59 704.176 1845.41 718.699L1841.76 735.884H1761.38L1732 716.953H1517.58L1487.09 735.884H1403.94L1400.39 716.094Z" fill="#103976"/>
<path d="M1805.11 710.855C1805.11 711.271 1720.16 711.576 1615.39 711.576C1510.62 711.576 1425.67 711.271 1425.67 710.855C1425.67 710.44 1510.6 710.135 1615.39 710.135C1720.19 710.135 1805.11 710.578 1805.11 710.855Z" fill="white"/>
<g opacity="0.3">
<path d="M1458.6 669.281C1459.87 655.663 1464.1 642.486 1470.99 630.672C1489.31 599.851 1510.93 604.008 1510.93 604.008C1510.93 604.008 1684.55 602.539 1734.05 602.539C1776.21 602.539 1785.46 657.363 1787.26 673.633H1787.74C1787.74 673.633 1783.61 598.021 1734.1 598.021C1684.6 598.021 1510.98 599.463 1510.98 599.463C1510.98 599.463 1489.36 595.333 1471.04 626.126C1464.16 637.945 1459.93 651.119 1458.65 664.736L1457.74 673.633H1458.18L1458.6 669.281Z" fill="black"/>
</g>
<path d="M1571.3 603.371C1571.3 604.55 1571.76 605.681 1572.59 606.517C1573.42 607.353 1574.55 607.826 1575.73 607.833H1666.14C1666.73 607.833 1667.31 607.718 1667.85 607.494C1668.39 607.269 1668.88 606.941 1669.3 606.526C1669.71 606.112 1670.04 605.62 1670.26 605.079C1670.49 604.537 1670.6 603.957 1670.6 603.371V602.761C1670.6 602.174 1670.49 601.593 1670.26 601.051C1670.04 600.51 1669.7 600.018 1669.29 599.606C1668.87 599.193 1668.37 598.868 1667.83 598.648C1667.28 598.428 1666.7 598.319 1666.11 598.327L1575.7 598.964C1574.54 598.971 1573.42 599.438 1572.59 600.263C1571.77 601.088 1571.3 602.204 1571.3 603.371Z" fill="#103976"/>
<path d="M869.839 837.051H794.45V974.831H869.839V837.051Z" fill="#263238"/>
<path d="M1291.25 837.051H1212.34V974.831H1291.25V837.051Z" fill="#263238"/>
<path d="M818.286 622.189H797.858V639.124H818.286V622.189Z" fill="#263238"/>
<path d="M779.372 651.958C776.671 651.958 773.997 651.426 771.501 650.393C769.006 649.359 766.739 647.844 764.829 645.935C762.92 644.025 761.405 641.758 760.371 639.263C759.338 636.767 758.806 634.093 758.806 631.392V605.976C758.806 600.522 760.972 595.291 764.829 591.434C768.686 587.577 773.917 585.41 779.372 585.41C784.826 585.41 790.057 587.577 793.914 591.434C797.771 595.291 799.937 600.522 799.937 605.976V631.392C799.937 634.093 799.405 636.767 798.372 639.263C797.338 641.758 795.824 644.025 793.914 645.935C792.004 647.844 789.737 649.359 787.242 650.393C784.747 651.426 782.072 651.958 779.372 651.958Z" fill="#263238"/>
<path d="M1255.91 639.125H1276.33V622.19H1255.91V639.125Z" fill="#263238"/>
<path d="M1294.82 651.958C1297.52 651.958 1300.2 651.426 1302.69 650.393C1305.19 649.359 1307.45 647.844 1309.36 645.935C1311.27 644.025 1312.79 641.758 1313.82 639.263C1314.85 636.767 1315.39 634.093 1315.39 631.392V605.976C1315.39 600.522 1313.22 595.291 1309.36 591.434C1305.51 587.577 1300.27 585.41 1294.82 585.41C1289.37 585.418 1284.15 587.587 1280.3 591.444C1276.45 595.3 1274.28 600.526 1274.28 605.976V631.392C1274.28 636.842 1276.45 642.069 1280.3 645.925C1284.15 649.781 1289.37 651.951 1294.82 651.958Z" fill="#263238"/>
<path d="M883.032 423.932C877.94 424.009 872.94 425.307 868.454 427.719C863.969 430.131 860.128 433.585 857.256 437.791C854.001 442.231 851.414 447.124 849.578 452.314C846.002 464.149 826.573 510.519 811.163 626.681C805.619 662.38 800.963 703.539 796.972 747.498L792.232 788.851L1285.59 790.902C1285.59 790.902 1271.43 650.628 1268.16 626.653C1264.89 602.678 1226.72 441.338 1226.72 441.338C1226.72 441.338 1227.83 428.727 1201.78 424.126C1179.05 420.163 945.145 423.073 883.032 423.932Z" fill="#103976"/>
<g opacity="0.3">
<path d="M906.675 702.098H1174.14L1276 694.061L1285.65 788.381L1169.24 790.903L792.232 788.852L798.136 734.832L802.293 694.061L906.675 702.098Z" fill="black"/>
</g>
<path d="M862.91 502.371C862.91 502.371 843.065 503.147 835.442 540.509C827.82 577.872 821.723 638.156 821.723 638.156H1258.76L1236.59 529.838C1236.59 529.838 1233.65 511.296 1208.45 502.371C1183.26 493.446 873.747 492.06 862.91 502.371Z" fill="#455A64"/>
<path d="M997.142 495.191H1080.49V500.735C1080.49 504.013 1079.18 507.158 1076.87 509.476C1074.55 511.794 1071.4 513.096 1068.12 513.096H1009.5C1006.23 513.096 1003.08 511.794 1000.76 509.476C998.444 507.158 997.142 504.013 997.142 500.735V495.191Z" fill="#263238"/>
<path d="M821.723 638.154L823.469 622.189H1254.49L1258.76 638.154H821.723Z" fill="#263238"/>
<path d="M1226.61 627.428H1223.84C1223.84 616.651 1219.56 606.316 1211.94 598.696C1204.32 591.076 1193.98 586.795 1183.21 586.795C1172.43 586.795 1162.09 591.076 1154.47 598.696C1146.85 606.316 1142.57 616.651 1142.57 627.428H1139.8C1139.8 615.916 1144.37 604.876 1152.51 596.736C1160.65 588.596 1171.69 584.023 1183.21 584.023C1194.72 584.023 1205.76 588.596 1213.9 596.736C1222.04 604.876 1226.61 615.916 1226.61 627.428Z" fill="#263238"/>
<path d="M1129.19 624.656C1129.19 624.656 1135.2 613.57 1152.69 613.015C1168.9 612.572 1210.09 613.015 1210.09 613.015C1210.09 613.015 1230.19 613.902 1236.01 622.19V627.428H1129.19V624.656Z" fill="#263238"/>
<path d="M850.909 625.072C849.163 627.289 851.74 592.477 855.731 577.205C856.175 575.494 857.176 573.979 858.576 572.9C859.977 571.821 861.697 571.239 863.464 571.246H934.669C936.569 571.244 938.407 571.921 939.851 573.157C941.295 574.392 942.249 576.104 942.54 577.981C944.176 588.486 948.555 608.664 949.525 625.1L850.909 625.072Z" fill="#263238"/>
<path d="M921.974 533.164H877.406C872.385 533.164 868.314 537.234 868.314 542.255V557.527C868.314 562.548 872.385 566.618 877.406 566.618H921.974C926.995 566.618 931.065 562.548 931.065 557.527V542.255C931.065 537.234 926.995 533.164 921.974 533.164Z" fill="#263238"/>
<path d="M977.851 625.072C976.105 627.289 978.711 592.477 982.674 577.205C983.126 575.499 984.129 573.989 985.528 572.911C986.926 571.834 988.642 571.248 990.407 571.246H1061.56C1063.46 571.243 1065.3 571.919 1066.75 573.154C1068.2 574.389 1069.16 576.101 1069.46 577.981C1071.09 588.486 1075.44 608.664 1076.44 625.1L977.851 625.072Z" fill="#263238"/>
<path d="M1048.92 533.164H1004.35C999.328 533.164 995.257 537.234 995.257 542.255V557.527C995.257 562.548 999.328 566.618 1004.35 566.618H1048.92C1053.94 566.618 1058.01 562.548 1058.01 557.527V542.255C1058.01 537.234 1053.94 533.164 1048.92 533.164Z" fill="#263238"/>
<path d="M1108.9 625.072C1107.15 627.289 1109.73 592.477 1113.72 577.205C1114.17 575.496 1115.17 573.984 1116.57 572.906C1117.97 571.827 1119.69 571.244 1121.45 571.246H1192.66C1194.56 571.238 1196.4 571.914 1197.84 573.15C1199.29 574.386 1200.24 576.101 1200.53 577.981C1202.16 588.486 1206.54 608.664 1207.51 625.1L1108.9 625.072Z" fill="#263238"/>
<path d="M1179.93 533.164H1135.37C1130.35 533.164 1126.27 537.234 1126.27 542.255V557.527C1126.27 562.548 1130.35 566.618 1135.37 566.618H1179.93C1184.96 566.618 1189.03 562.548 1189.03 557.527V542.255C1189.03 537.234 1184.96 533.164 1179.93 533.164Z" fill="#263238"/>
<path d="M1258.76 638.154C1258.76 638.154 1258.76 638.736 1258.76 639.845C1258.76 640.954 1258.76 642.617 1258.76 644.862C1258.76 649.324 1258.48 655.782 1258.26 664.097C1257.74 680.866 1257.01 705.035 1256.1 734.858V735.357H1255.57L1040.6 735.551L821.806 735.357H821.279V734.83C821.279 706.144 821.473 682.917 821.529 666.813C821.529 658.831 821.529 652.595 821.529 648.326C821.529 646.248 821.529 644.64 821.529 643.504C821.529 642.367 821.529 641.868 821.529 641.868C821.529 641.868 821.529 642.423 821.529 643.504C821.529 644.585 821.529 646.275 821.529 648.326C821.529 652.595 821.529 658.831 821.667 666.813C821.667 682.917 821.806 706.144 821.889 734.83L821.39 734.332L1040.19 734.11L1255.16 734.304L1254.63 734.83C1255.74 705.007 1256.65 680.838 1257.4 664.07C1257.74 655.754 1258.01 649.296 1258.21 644.862C1258.21 642.7 1258.37 641.037 1258.43 639.845C1258.48 638.653 1258.76 638.154 1258.76 638.154Z" fill="#263238"/>
<path d="M1174.14 702.098C1173.62 703.678 1174.14 755.453 1174.14 755.453C1174.14 755.453 1261.37 760.193 1280.88 738.546L1276 694.061L1174.14 702.098Z" fill="#E0E0E0"/>
<path d="M1174.14 702.098C1174.75 701.974 1175.38 701.891 1176 701.848L1181.54 701.321L1202.52 699.465L1275.95 693.395H1276.61V694.032C1278.14 707.89 1279.8 722.857 1281.54 738.379V738.711L1281.32 738.933C1279.36 740.979 1277.11 742.725 1274.64 744.116C1266.02 748.461 1256.74 751.372 1247.18 752.736C1238.31 754.189 1229.37 755.169 1220.4 755.674C1204.96 756.587 1189.48 756.661 1174.03 755.896H1173.5V755.397C1173.5 738.961 1173.5 725.601 1173.5 716.372C1173.5 711.771 1173.5 708.057 1173.7 705.728C1173.66 704.491 1173.78 703.254 1174.03 702.042C1174.03 703.955 1174.03 708.001 1174.03 716.372C1174.17 725.712 1174.31 739.016 1174.53 755.369L1174 754.843C1189.41 755.459 1204.84 755.302 1220.23 754.371C1229.15 753.827 1238.03 752.818 1246.84 751.35C1256.24 750.01 1265.36 747.155 1273.84 742.897C1276.18 741.578 1278.32 739.925 1280.19 737.991L1279.99 738.545C1278.3 722.885 1276.67 707.863 1275.17 694.198L1275.89 694.78L1202.75 700.324L1181.63 701.793L1176.08 702.125H1174.61L1174.14 702.098Z" fill="#263238"/>
<path d="M905.039 702.098C905.566 703.678 905.039 755.453 905.039 755.453C905.039 755.453 817.815 760.192 798.247 738.573L803.125 694.088L905.039 702.098Z" fill="#E0E0E0"/>
<path d="M905.039 702.097H904.513H903.044L897.5 701.764L876.38 700.295L803.235 694.752L803.79 694.225C802.293 708.084 800.63 723.023 798.939 738.572L798.745 738.018C800.62 739.954 802.768 741.607 805.12 742.924C813.592 747.186 822.7 750.041 832.089 751.377C840.909 752.845 849.8 753.854 858.725 754.399C874.108 755.329 889.529 755.487 904.928 754.87L904.429 755.396C904.624 739.043 904.79 725.739 904.901 716.399C904.901 708.084 904.901 703.982 904.901 702.069C905.155 703.281 905.267 704.518 905.233 705.756C905.233 708.195 905.4 711.798 905.455 716.399C905.455 725.629 905.455 738.988 905.455 755.424V755.923H904.928C889.479 756.689 874 756.615 858.558 755.701C849.588 755.196 840.65 754.216 831.784 752.763C822.229 751.402 812.961 748.49 804.344 744.143C801.862 742.76 799.602 741.013 797.637 738.96L797.415 738.739V738.572C799.161 722.912 800.824 707.862 802.349 694.225V693.588H802.986L876.436 699.658L897.389 701.515L902.933 702.042C903.635 702.009 904.339 702.027 905.039 702.097Z" fill="#263238"/>
<path d="M792.232 788.852C792.232 788.852 787.409 853.321 798.496 892.512C800.267 898.66 803.992 904.063 809.109 907.904C814.225 911.744 820.453 913.814 826.85 913.799H1261.12C1265.72 913.813 1270.21 912.433 1274.01 909.841C1277.81 907.248 1280.74 903.564 1282.4 899.275C1289.3 881.481 1296.71 851.436 1285.73 788.408L1157.26 788.879L792.232 788.852Z" fill="#263238"/>
<g opacity="0.3">
<path d="M804.372 809.971C805.73 810.913 809.915 838.962 829.567 843.092C849.218 847.222 882.228 844.922 882.228 844.922V809.971H804.372Z" fill="black"/>
</g>
<path d="M865.681 827.406C865.681 830.559 864.746 833.642 862.994 836.263C861.241 838.885 858.75 840.927 855.837 842.133C852.923 843.338 849.717 843.652 846.625 843.035C843.533 842.418 840.693 840.897 838.465 838.665C836.237 836.434 834.722 833.591 834.11 830.498C833.498 827.405 833.818 824.199 835.028 821.288C836.239 818.376 838.286 815.889 840.91 814.141C843.535 812.393 846.619 811.463 849.772 811.469C851.864 811.469 853.935 811.881 855.867 812.682C857.799 813.484 859.554 814.658 861.032 816.138C862.509 817.619 863.68 819.376 864.478 821.309C865.276 823.243 865.685 825.314 865.681 827.406Z" fill="white"/>
<g opacity="0.3">
<path d="M1257.74 810.359C1256.35 811.274 1252.19 839.351 1232.51 843.62C1212.83 847.888 1179.85 845.449 1179.85 845.449V810.359H1257.74Z" fill="black"/>
</g>
<path d="M1196.4 827.765C1196.39 830.918 1197.32 834.002 1199.07 836.627C1200.82 839.251 1203.31 841.298 1206.22 842.509C1209.13 843.719 1212.33 844.039 1215.43 843.427C1218.52 842.815 1221.36 841.299 1223.6 839.072C1225.83 836.844 1227.35 834.004 1227.96 830.912C1228.58 827.82 1228.27 824.614 1227.06 821.7C1225.86 818.786 1223.81 816.296 1221.19 814.543C1218.57 812.791 1215.49 811.855 1212.34 811.855C1208.11 811.855 1204.06 813.531 1201.08 816.514C1198.09 819.496 1196.41 823.543 1196.4 827.765Z" fill="white"/>
<path d="M919.785 809.971V837.355C919.785 844.456 922.606 851.266 927.627 856.287C932.648 861.308 939.458 864.129 946.559 864.129H1132.26C1139.36 864.129 1146.17 861.308 1151.19 856.287C1156.21 851.266 1159.04 844.456 1159.04 837.355V811.467L919.785 809.971Z" fill="#455A64"/>
<g opacity="0.3">
<path d="M1132.37 853.294H946.67C943.155 853.297 939.674 852.608 936.426 851.266C933.178 849.923 930.226 847.953 927.739 845.469C925.253 842.985 923.28 840.036 921.934 836.789C920.588 833.542 919.896 830.062 919.896 826.547V837.828C919.892 841.345 920.582 844.828 921.926 848.078C923.27 851.328 925.242 854.281 927.729 856.768C930.216 859.255 933.169 861.227 936.419 862.571C939.67 863.916 943.153 864.606 946.67 864.602H1132.37C1135.89 864.606 1139.37 863.916 1142.62 862.571C1145.87 861.227 1148.83 859.255 1151.31 856.768C1153.8 854.281 1155.77 851.328 1157.12 848.078C1158.46 844.828 1159.15 841.345 1159.15 837.828V826.547C1159.15 830.062 1158.45 833.542 1157.11 836.789C1155.76 840.036 1153.79 842.985 1151.3 845.469C1148.82 847.953 1145.86 849.923 1142.62 851.266C1139.37 852.608 1135.89 853.297 1132.37 853.294Z" fill="black"/>
</g>
<path d="M934.419 734.832C934.419 734.832 921.864 739.904 919.785 759.084C917.263 782.505 944.037 788.852 944.037 788.852H1147.48C1154.39 780.401 1158.45 769.983 1159.09 759.084C1159.59 741.928 1143.43 734.832 1143.43 734.832H934.419Z" fill="#263238"/>
<path d="M1225.22 445.773C1225.22 446.161 1141.88 446.494 1039.13 446.494C936.387 446.494 853.015 446.161 853.015 445.773C853.015 445.385 936.332 445.053 1039.13 445.053C1141.93 445.053 1225.22 445.358 1225.22 445.773Z" fill="#263238"/>
<path d="M1285.65 788.463C1285.65 788.463 1287.75 798.275 1289.83 816.18C1291.09 827.128 1291.67 838.143 1291.58 849.163C1291.6 863.805 1289.48 878.372 1285.29 892.401C1284.65 894.341 1284.01 896.309 1283.26 898.249C1282.59 900.272 1281.66 902.2 1280.49 903.986C1277.99 907.66 1274.49 910.544 1270.4 912.301C1268.31 913.227 1266.08 913.826 1263.81 914.075C1261.51 914.264 1259.21 914.329 1256.9 914.269H1242.88H1181.9H1042.54H903.127H842.317H828.264C823.667 914.426 819.09 913.585 814.849 911.803C810.891 910.077 807.354 907.513 804.483 904.288C801.612 901.062 799.475 897.253 798.219 893.121C794.565 878.97 792.364 864.482 791.65 849.883C790.874 837.023 790.819 825.908 790.93 816.845C791.041 807.781 791.373 800.769 791.65 796.002C791.817 793.646 791.928 791.844 792.038 790.459C792.149 789.073 792.232 788.629 792.232 788.629C792.232 788.629 792.232 789.267 792.232 790.486C792.232 791.706 792.094 793.535 792.011 795.891C791.817 800.658 791.567 807.698 791.539 816.734C791.512 825.77 791.678 836.884 792.537 849.717C793.31 864.246 795.557 878.659 799.245 892.733C800.486 896.718 802.576 900.387 805.37 903.487C808.164 906.588 811.597 909.046 815.431 910.694C819.544 912.401 823.981 913.186 828.431 912.994H842.483H903.294H1042.71H1182.07H1243.05H1257.07C1259.33 913.074 1261.58 913.028 1263.83 912.856C1267.02 912.481 1270.1 911.426 1272.85 909.762C1275.6 908.098 1277.96 905.864 1279.77 903.21C1280.93 901.491 1281.86 899.628 1282.54 897.667C1283.29 895.755 1283.96 893.814 1284.59 891.902C1288.81 877.979 1290.99 863.517 1291.05 848.969C1291.21 837.973 1290.71 826.977 1289.55 816.041C1289.14 811.523 1288.61 807.532 1288.17 804.095C1287.73 800.658 1287.31 797.72 1286.95 795.364C1286.59 793.008 1286.34 791.235 1286.15 789.987C1285.95 788.74 1285.65 788.463 1285.65 788.463Z" fill="#455A64"/>
<path d="M1285.65 788.463C1285.65 788.851 1181.43 789.184 1052.83 789.184C924.219 789.184 820.004 788.851 820.004 788.463C820.004 788.075 924.192 787.742 1052.83 787.742C1181.46 787.742 1285.65 787.964 1285.65 788.463Z" fill="#455A64"/>
<path d="M259.46 700.325H219.741C216.801 700.325 213.981 699.157 211.902 697.078C209.823 694.999 208.655 692.179 208.655 689.239C208.655 684.769 210.43 680.483 213.591 677.323C216.751 674.162 221.037 672.387 225.507 672.387H250.008C251.234 672.387 252.447 672.629 253.579 673.098C254.71 673.568 255.738 674.257 256.603 675.124C257.468 675.992 258.154 677.022 258.62 678.155C259.087 679.288 259.325 680.502 259.321 681.727L259.46 700.325Z" fill="#103976"/>
<path d="M622.744 700.325H662.434C665.374 700.325 668.194 699.157 670.274 697.078C672.353 694.999 673.521 692.179 673.521 689.239C673.521 684.769 671.745 680.483 668.585 677.323C665.425 674.162 661.138 672.387 656.669 672.387H632.167C629.69 672.387 627.314 673.371 625.563 675.123C623.811 676.874 622.827 679.25 622.827 681.727L622.744 700.325Z" fill="#103976"/>
<path d="M291.334 866.82H211.842V973.308H291.334V866.82Z" fill="#263238"/>
<path d="M675.322 866.82H595.831V973.308H675.322V866.82Z" fill="#263238"/>
<path d="M219.935 725.298L243.051 706.728L279.61 606.337C285.153 593.837 295.575 577.761 319.771 575.322L571.689 577.54C578.66 577.606 585.445 579.795 591.14 583.816C596.835 587.837 601.169 593.499 603.563 600.046L636.297 689.682L645.277 710.053L666.619 724.993C670.64 727.795 673.926 731.526 676.198 735.868C678.471 740.211 679.663 745.037 679.674 749.938V893.788C679.674 893.788 678.62 920.258 651.125 920.258H239.614C239.614 920.258 213.173 921.311 208.932 890.628C205.578 866.293 207.546 782.006 208.516 748.22C208.643 743.799 209.731 739.46 211.703 735.502C213.674 731.543 216.484 728.062 219.935 725.298Z" fill="#103976"/>
<g opacity="0.3">
<path d="M206.548 828.127C209.708 828.903 679.674 828.127 679.674 828.127V892.208C679.674 907.813 668.587 920.313 652.899 920.313H242.275C237.632 920.437 233.012 919.608 228.702 917.877C224.391 916.146 220.481 913.55 217.214 910.249C213.946 906.947 211.39 903.011 209.703 898.683C208.017 894.355 207.235 889.727 207.408 885.085L206.548 828.127Z" fill="black"/>
</g>
<path d="M222.818 735.803L314.006 746.889V800.355C314.006 800.355 213.09 797.583 207.047 784.113L208.406 748.081C208.477 746.304 208.915 744.561 209.693 742.962C210.471 741.363 211.572 739.942 212.925 738.788C214.279 737.635 215.857 736.775 217.559 736.261C219.262 735.747 221.052 735.591 222.818 735.803Z" fill="#E0E0E0"/>
<path d="M222.818 735.802C221.5 735.779 220.182 735.882 218.882 736.107C217.045 736.493 215.314 737.279 213.815 738.41C212.315 739.54 211.084 740.988 210.207 742.648C209.032 745.097 208.516 747.811 208.71 750.52C208.71 753.513 208.516 756.784 208.406 760.276C208.156 767.316 207.907 775.271 207.602 784.03V783.808C209.752 786.342 212.672 788.104 215.917 788.825C219.381 789.948 222.907 790.873 226.477 791.596C233.85 793.065 241.749 794.229 250.036 795.172C266.666 797.057 284.599 798.276 303.419 799.135L314.145 799.551L313.397 800.272C313.397 781.258 313.397 763.214 313.397 746.806L313.979 747.471L248.235 739.156L229.526 736.717L224.509 736.107C223.93 736.046 223.355 735.944 222.791 735.802C223.372 735.758 223.955 735.758 224.537 735.802L229.498 736.274L248.235 738.352L314.062 746.058H314.644V746.889C314.644 763.297 314.644 781.341 314.644 800.355V801.103H313.896L303.169 800.687C284.322 799.828 266.25 798.581 249.676 796.613C241.361 795.643 233.461 794.479 226.033 792.927C222.416 792.213 218.844 791.287 215.335 790.155C213.649 789.578 212.009 788.874 210.429 788.049C208.785 787.259 207.408 786.007 206.465 784.445V784.307C206.853 775.548 207.186 767.677 207.463 760.553C207.629 757.061 207.768 753.791 207.907 750.797C207.776 747.988 208.368 745.192 209.625 742.676C210.55 740.891 211.874 739.342 213.494 738.15C215.114 736.958 216.986 736.155 218.966 735.802C220.238 735.553 221.546 735.553 222.818 735.802Z" fill="#263238"/>
<path d="M663.903 735.802L572.715 746.888V800.354C572.715 800.354 671.664 796.862 677.706 783.447L678.316 748.191C678.263 746.403 677.839 744.646 677.069 743.032C676.299 741.417 675.201 739.981 673.844 738.815C672.488 737.649 670.903 736.779 669.191 736.26C667.48 735.741 665.678 735.585 663.903 735.802Z" fill="#E0E0E0"/>
<path d="M663.903 735.802C665.211 735.535 666.559 735.535 667.867 735.802C669.769 736.13 671.574 736.877 673.151 737.989C674.728 739.101 676.038 740.551 676.986 742.232C678.343 744.671 678.932 747.463 678.676 750.242C678.676 753.208 678.676 756.451 678.676 759.916C678.676 766.845 678.482 774.744 678.371 783.392C677.445 784.936 676.1 786.186 674.491 786.995C672.932 787.83 671.31 788.544 669.641 789.129C666.167 790.336 662.621 791.327 659.025 792.095C651.652 793.675 643.781 794.867 635.549 795.947C619.085 797.999 601.125 799.412 582.388 800.382L572.909 800.798H572.161V800.05C572.161 781.064 572.161 763.02 572.161 746.584V746.002H572.743L638.431 738.574L657.196 736.495L662.185 736.024C662.757 735.981 663.331 735.981 663.903 736.024C663.347 736.164 662.782 736.266 662.212 736.329L657.251 737.049L638.542 739.488L572.798 747.803L573.38 747.138C573.38 763.574 573.38 781.618 573.38 800.604L572.632 799.883L582.111 799.467C600.82 798.497 618.725 797.139 635.161 795.144C643.476 794.146 651.209 792.926 658.526 791.402C662.069 790.679 665.567 789.754 669.003 788.63C672.192 787.854 675.047 786.076 677.152 783.558V783.78C677.346 775.104 677.512 767.15 677.678 760.304C677.678 756.839 677.845 753.624 677.9 750.631C678.201 747.973 677.689 745.286 676.431 742.925C675.544 741.295 674.314 739.876 672.826 738.766C671.338 737.656 669.627 736.881 667.811 736.495C666.529 736.163 665.222 735.931 663.903 735.802Z" fill="#263238"/>
<path d="M349.04 746.889C342.169 746.849 335.511 749.27 330.269 753.713C325.028 758.156 321.55 764.329 320.464 771.114C319.805 775.702 319.61 780.345 319.882 784.972C321.49 816.929 327.865 856.093 343.053 865.656H447.712V746.889H349.04Z" fill="#263238"/>
<path d="M534.438 746.889C541.311 746.844 547.972 749.262 553.215 753.706C558.457 758.151 561.934 764.326 563.014 771.114C563.673 775.702 563.868 780.345 563.596 784.972C562.016 816.93 555.613 856.093 540.425 865.656H435.766V746.889H534.438Z" fill="#263238"/>
<path d="M560.797 788.99H323.707C322.017 788.99 320.395 788.319 319.2 787.123C318.004 785.928 317.333 784.306 317.333 782.616C317.329 781.776 317.491 780.944 317.81 780.167C318.129 779.391 318.598 778.685 319.19 778.09C319.782 777.495 320.486 777.023 321.261 776.701C322.037 776.379 322.868 776.213 323.707 776.213H560.797C561.636 776.213 562.468 776.379 563.243 776.701C564.018 777.023 564.722 777.495 565.314 778.09C565.907 778.685 566.376 779.391 566.694 780.167C567.013 780.944 567.175 781.776 567.172 782.616C567.172 784.306 566.5 785.928 565.304 787.123C564.109 788.319 562.487 788.99 560.797 788.99Z" fill="#455A64"/>
<path d="M548.38 763.768H332.189C331.348 763.768 330.515 763.602 329.739 763.281C328.962 762.959 328.256 762.487 327.661 761.893C327.067 761.298 326.595 760.592 326.274 759.816C325.952 759.039 325.786 758.206 325.786 757.365C325.786 756.525 325.952 755.692 326.274 754.915C326.595 754.138 327.067 753.433 327.661 752.838C328.256 752.244 328.962 751.772 329.739 751.45C330.515 751.129 331.348 750.963 332.189 750.963H548.38C550.073 750.97 551.694 751.648 552.889 752.848C554.084 754.048 554.754 755.672 554.754 757.365C554.754 759.059 554.084 760.683 552.889 761.883C551.694 763.083 550.073 763.761 548.38 763.768Z" fill="#455A64"/>
<path d="M560.769 804.678H326.174C322.638 804.678 319.771 807.538 319.771 811.066C319.771 814.595 322.638 817.455 326.174 817.455H560.769C564.305 817.455 567.171 814.595 567.171 811.066C567.171 807.538 564.305 804.678 560.769 804.678Z" fill="#455A64"/>
<path d="M552.62 845.893H331.468C329.777 845.893 328.156 845.221 326.96 844.026C325.765 842.83 325.093 841.209 325.093 839.518C325.09 838.678 325.252 837.846 325.571 837.07C325.889 836.293 326.358 835.587 326.951 834.992C327.543 834.397 328.247 833.925 329.022 833.603C329.797 833.281 330.629 833.115 331.468 833.115H552.62C553.46 833.115 554.291 833.281 555.066 833.603C555.842 833.925 556.546 834.397 557.138 834.992C557.73 835.587 558.199 836.293 558.518 837.07C558.837 837.846 558.999 838.678 558.995 839.518C558.995 841.209 558.324 842.83 557.128 844.026C555.933 845.221 554.311 845.893 552.62 845.893Z" fill="#455A64"/>
<path d="M260.541 691.29C260.541 691.29 286.955 603.039 299.566 591.842H588.819C588.819 591.842 613.764 646.472 622.744 691.29H260.541Z" fill="#455A64"/>
<path d="M334.351 881.232V888.91C334.351 893.394 336.132 897.694 339.303 900.865C342.473 904.036 346.774 905.817 351.258 905.817H535.879C540.363 905.817 544.664 904.036 547.835 900.865C551.005 897.694 552.787 893.394 552.787 888.91V881.232H334.351Z" fill="#263238"/>
<path d="M589.816 859.891V893.511C589.816 893.511 657.389 903.046 667.284 859.891H589.816Z" fill="#263238"/>
<path d="M306.412 859.891V893.511C306.412 893.511 238.838 903.046 228.971 859.891H306.412Z" fill="#263238"/>
<path d="M645.278 710.053C645.184 709.883 645.101 709.707 645.028 709.527L644.335 707.892C643.753 706.395 642.894 704.261 641.813 701.544C639.596 696.001 636.436 687.686 632.417 677.459C624.407 656.699 613.015 627.291 599.684 592.507L600.293 592.922H506.694L351.341 592.507L304.223 592.202L291.417 592.035H304.223L351.341 591.869H506.694L600.293 592.063H600.737L600.903 592.479L633.138 677.625C637.018 687.963 640.067 696.167 642.201 701.849C643.199 704.621 643.975 706.727 644.557 708.28L645.111 709.943C645.25 709.859 645.305 710.053 645.278 710.053Z" fill="#263238"/>
<path d="M622.744 691.288C622.744 691.676 541.672 692.064 441.642 692.12C341.613 692.175 260.541 691.926 260.541 691.455C260.541 690.984 341.613 690.679 441.642 690.623C541.672 690.568 622.744 690.9 622.744 691.288Z" fill="#263238"/>
<path d="M620.249 690.762C620.499 690.457 632.195 698.828 646.359 709.471C660.522 720.114 671.83 729.011 671.581 729.344C671.331 729.676 659.663 721.278 645.499 710.635C631.336 699.992 620.028 691.095 620.249 690.762Z" fill="#263238"/>
<path d="M260.541 691.289C260.79 691.594 250.978 700.352 238.617 710.857C226.255 721.362 216.028 729.649 215.778 729.344C215.529 729.039 225.34 720.281 237.674 709.776C244.977 703.229 252.609 697.058 260.541 691.289Z" fill="#263238"/>
<path d="M263.895 649.521C264.255 649.521 259.903 662.575 254.138 678.374C248.373 694.172 243.412 706.867 243.052 706.728C242.691 706.59 247.043 693.674 252.78 677.875C258.518 662.076 263.507 649.382 263.895 649.521Z" fill="#263238"/>
<path d="M582.859 745.586C582.629 745.615 582.396 745.615 582.166 745.586L580.143 745.724L572.327 746.168C565.508 746.528 555.697 746.944 543.529 747.277C519.194 748.025 485.573 748.413 448.46 748.302C411.348 748.191 377.7 747.72 353.392 747.443L324.566 747.027L316.75 746.861H324.566H353.392L448.46 747.304C485.573 747.304 519.166 747.304 543.501 746.722L572.299 746.057L580.115 745.891H582.887L582.859 745.586Z" fill="#263238"/>
<path d="M400.843 591.842H478.45V596.249C478.45 599.527 477.148 602.672 474.83 604.99C472.511 607.308 469.367 608.61 466.089 608.61H413.205C409.926 608.61 406.782 607.308 404.464 604.99C402.146 602.672 400.843 599.527 400.843 596.249V591.842Z" fill="#263238"/>
<path d="M590.038 689.738H587.266C587 679.906 582.907 670.567 575.859 663.708C568.811 656.848 559.364 653.01 549.53 653.01C539.695 653.01 530.248 656.848 523.2 663.708C516.152 670.567 512.06 679.906 511.793 689.738H509.021C509.298 679.178 513.687 669.143 521.253 661.772C528.82 654.4 538.966 650.275 549.53 650.275C560.093 650.275 570.239 654.4 577.806 661.772C585.372 669.143 589.761 679.178 590.038 689.738Z" fill="#263238"/>
<path d="M496.771 688.184C496.771 688.184 502.314 677.763 518.667 677.347C533.773 676.931 572.105 677.347 572.105 677.347C572.105 677.347 590.814 678.178 596.219 685.884V690.762H496.771V688.184Z" fill="#263238"/>
<path d="M303.862 692.316C302.116 694.145 304.666 665.486 308.601 652.902C309.184 651.384 310.233 650.088 311.597 649.202C312.962 648.316 314.571 647.884 316.196 647.969H386.208C387.943 647.857 389.663 648.347 391.077 649.357C392.491 650.368 393.513 651.835 393.969 653.512C395.577 662.16 399.873 678.79 400.843 692.316H303.862Z" fill="#263238"/>
<path d="M373.847 616.621H330.304C325.283 616.621 321.213 620.691 321.213 625.712V635.08C321.213 640.101 325.283 644.172 330.304 644.172H373.847C378.868 644.172 382.938 640.101 382.938 635.08V625.712C382.938 620.691 378.868 616.621 373.847 616.621Z" fill="#263238"/>
<path d="M472.768 691.29C471.05 693.119 474.154 663.019 478.062 650.435C478.657 648.927 479.709 647.642 481.071 646.762C482.433 645.882 484.037 645.451 485.656 645.529H555.669C557.403 645.417 559.123 645.908 560.537 646.918C561.952 647.928 562.973 649.396 563.43 651.073C565.037 659.748 569.333 677.709 570.303 691.29H472.768Z" fill="#263238"/>
<path d="M543.308 616.621H499.764C494.744 616.621 490.673 620.691 490.673 625.712V635.08C490.673 640.101 494.744 644.172 499.764 644.172H543.308C548.328 644.172 552.399 640.101 552.399 635.08V625.712C552.399 620.691 548.328 616.621 543.308 616.621Z" fill="#263238"/>
<path d="M114.363 662.49H90.7759V974.803H114.363V662.49Z" fill="#E0E0E0"/>
<path d="M114.363 974.832C114.363 974.832 114.363 974.25 114.363 973.197C114.363 972.143 114.363 970.425 114.363 968.485C114.363 964.3 114.363 958.23 114.363 950.413C114.363 934.726 114.363 912.026 114.141 883.893C114.141 827.684 113.947 749.716 113.836 662.464L114.557 663.184H90.7758L91.4964 662.464C91.4964 804.956 91.3024 926.688 91.0253 974.804L90.7758 974.527L108.293 974.693H112.811H114.363H112.894H108.459L90.7758 974.832H90.4986V974.582C90.2492 926.466 90.0552 804.734 90.0552 662.242V661.521H115V662.242C115 749.689 114.779 827.85 114.695 884.198C114.695 912.247 114.529 934.864 114.474 950.524C114.474 958.257 114.474 964.383 114.474 968.429C114.474 970.425 114.474 971.949 114.474 973.03C114.474 974.111 114.363 974.832 114.363 974.832Z" fill="#263238"/>
<path d="M170.489 495.109H42.2714C27.469 495.109 15.4692 507.109 15.4692 521.911V650.129C15.4692 664.932 27.469 676.931 42.2714 676.931H170.489C185.292 676.931 197.291 664.932 197.291 650.129V521.911C197.291 507.109 185.292 495.109 170.489 495.109Z" fill="#455A64"/>
<path d="M170.267 670.89H42.4653C36.9518 670.875 31.6687 668.677 27.7727 664.775C23.8766 660.874 21.685 655.588 21.6777 650.075V522.383C21.6924 516.875 23.8872 511.596 27.7824 507.7C31.6777 503.805 36.9566 501.61 42.4653 501.596H170.267C175.778 501.603 181.061 503.795 184.958 507.692C188.855 511.589 191.048 516.872 191.055 522.383V650.185C191.026 655.682 188.824 660.944 184.929 664.823C181.035 668.702 175.764 670.883 170.267 670.89ZM42.4653 504.257C37.6895 504.264 33.1113 506.164 29.7342 509.541C26.3572 512.918 24.4567 517.497 24.4494 522.272V650.075C24.4494 654.855 26.3466 659.44 29.7245 662.823C33.1023 666.207 37.6847 668.111 42.4653 668.118H170.267C175.048 668.111 179.63 666.207 183.008 662.823C186.386 659.44 188.283 654.855 188.283 650.075V522.383C188.276 517.607 186.376 513.029 182.998 509.652C179.621 506.275 175.043 504.375 170.267 504.367L42.4653 504.257Z" fill="white"/>
<path d="M133.182 543.614C138.675 545.956 143.359 549.859 146.653 554.839C149.173 558.593 150.832 562.857 151.514 567.327C152.195 571.796 151.881 576.361 150.595 580.695C149.308 585.03 147.08 589.026 144.07 592.4C141.06 595.774 137.342 598.441 133.182 600.212C126.676 602.975 119.655 604.317 112.589 604.148H97.3724V626.986H72.6768V539.678H112.589C119.655 539.509 126.676 540.851 133.182 543.614ZM122.567 581.392C123.881 580.215 124.913 578.756 125.585 577.124C126.257 575.492 126.551 573.73 126.447 571.968C126.546 570.199 126.249 568.43 125.577 566.791C124.906 565.151 123.878 563.681 122.567 562.489C119.273 560.02 115.197 558.829 111.092 559.135H97.3724V584.69H111.092C115.188 584.998 119.259 583.828 122.567 581.392Z" fill="white"/>
<path d="M1427.42 1142.68L1429.41 1182.43C1429.41 1182.43 1389.69 1197.81 1389.36 1205.19L1466.55 1204.08L1465.97 1142.05L1427.42 1142.68Z" fill="#455A64"/>
<path d="M1453.33 1178.74C1454.08 1178.96 1454.72 1179.44 1455.13 1180.1C1455.54 1180.77 1455.69 1181.56 1455.55 1182.32C1455.36 1183.07 1454.9 1183.72 1454.25 1184.14C1453.6 1184.56 1452.82 1184.71 1452.06 1184.57C1451.26 1184.34 1450.58 1183.82 1450.15 1183.12C1449.71 1182.42 1449.55 1181.58 1449.7 1180.77C1449.98 1180 1450.54 1179.38 1451.27 1179.02C1451.99 1178.65 1452.83 1178.59 1453.61 1178.83" fill="#263238"/>
<path d="M1466.64 1204.22V1198.2L1392.49 1201.36C1392.49 1201.36 1389.06 1202.91 1389.5 1205.32L1466.64 1204.22Z" fill="#263238"/>
<path d="M1428.25 1182.04C1428.25 1182.4 1430.16 1182.54 1432.02 1183.73C1433.88 1184.92 1434.79 1186.5 1435.26 1186.34C1435.73 1186.17 1435.01 1184.01 1432.71 1182.62C1430.41 1181.24 1428.17 1181.71 1428.25 1182.04Z" fill="#263238"/>
<path d="M1420.21 1185.54C1420.21 1185.9 1421.76 1186.51 1422.98 1188.09C1424.2 1189.66 1424.67 1191.36 1425.06 1191.33C1425.45 1191.3 1425.64 1189.17 1423.98 1187.23C1422.32 1185.29 1420.21 1185.17 1420.21 1185.54Z" fill="#263238"/>
<path d="M1415.75 1195.29C1416.08 1195.29 1416.58 1193.46 1415.58 1191.41C1414.58 1189.36 1412.81 1188.64 1412.64 1188.89C1412.48 1189.14 1413.61 1190.3 1414.39 1191.99C1415.17 1193.68 1415.36 1195.26 1415.75 1195.29Z" fill="#263238"/>
<path d="M1428.8 1172.95C1428.97 1173.28 1430.69 1172.76 1432.82 1172.95C1434.96 1173.15 1436.62 1173.7 1436.81 1173.4C1437.01 1173.09 1435.4 1171.73 1432.88 1171.65C1430.36 1171.57 1428.61 1172.65 1428.8 1172.95Z" fill="#263238"/>
<path d="M1496.54 1142.46L1497.98 1182.24C1497.98 1182.24 1458.04 1197.04 1457.6 1204.41H1534.79L1535.1 1142.35L1496.54 1142.46Z" fill="#455A64"/>
<path d="M1521.85 1178.88C1522.59 1179.11 1523.23 1179.6 1523.63 1180.27C1524.04 1180.93 1524.18 1181.72 1524.04 1182.49C1523.84 1183.23 1523.36 1183.88 1522.7 1184.28C1522.04 1184.69 1521.25 1184.83 1520.49 1184.68C1519.7 1184.43 1519.04 1183.91 1518.61 1183.2C1518.19 1182.5 1518.04 1181.66 1518.19 1180.85C1518.48 1180.09 1519.06 1179.47 1519.8 1179.12C1520.53 1178.77 1521.38 1178.71 1522.15 1178.97" fill="#263238"/>
<path d="M1534.79 1204.41V1198.39L1460.62 1200.5C1460.62 1200.5 1457.18 1202 1457.57 1204.41H1534.79Z" fill="#263238"/>
<path d="M1496.71 1181.85C1496.71 1182.21 1498.59 1182.37 1500.45 1183.59C1502.31 1184.81 1503.22 1186.37 1503.64 1186.37C1504.05 1186.37 1503.44 1184.04 1501.17 1182.6C1498.9 1181.16 1496.71 1181.49 1496.71 1181.85Z" fill="#263238"/>
<path d="M1488.64 1185.2C1488.64 1185.56 1490.17 1186.2 1491.42 1187.78C1492.66 1189.36 1493.05 1191.08 1493.44 1191.05C1493.83 1191.02 1494.05 1188.92 1492.41 1186.95C1490.78 1184.98 1488.64 1184.81 1488.64 1185.2Z" fill="#263238"/>
<path d="M1484.04 1194.87C1484.38 1194.87 1484.9 1193.07 1484.04 1191.02C1483.18 1188.97 1481.27 1188.25 1481.27 1188.44C1481.27 1188.64 1482.19 1189.86 1482.96 1191.58C1483.74 1193.29 1483.65 1194.85 1484.04 1194.87Z" fill="#263238"/>
<path d="M1497.4 1172.73C1497.57 1173.09 1499.29 1172.56 1501.42 1172.73C1503.56 1172.9 1505.22 1173.56 1505.41 1173.23C1505.61 1172.9 1504.03 1171.57 1501.5 1171.43C1498.98 1171.29 1497.24 1172.45 1497.4 1172.73Z" fill="#263238"/>
<path d="M1446.49 848.775C1445.32 850.438 1399.06 1011.83 1399.06 1022.81C1399.06 1033.78 1414.78 1172.48 1414.78 1172.48L1472.1 1173.59L1462.15 1031.21L1467.83 998.252L1501.81 911.97L1446.49 848.775Z" fill="#103976"/>
<g opacity="0.7">
<path d="M1446.49 848.775C1445.32 850.438 1399.06 1011.83 1399.06 1022.81C1399.06 1033.78 1414.78 1172.48 1414.78 1172.48L1472.1 1173.59L1462.15 1031.21L1467.83 998.252L1501.81 911.97L1446.49 848.775Z" fill="black"/>
</g>
<path d="M1528.45 798.83C1529.42 799.994 1558.16 843.426 1556.16 869.258C1554.17 895.09 1553 904.209 1540.17 919.343C1540.17 919.343 1534.63 1000.72 1534.63 1011.2C1534.63 1012.39 1537.76 1032.18 1539.61 1081.9C1540.78 1112.72 1540.34 1174.56 1540.34 1174.56L1481.66 1175.67C1481.66 1175.67 1476.61 1069.4 1473.9 1061.22C1470.66 1050.83 1468.52 1040.11 1467.52 1029.27C1466.61 1017.68 1454.88 936.583 1454.88 938.135C1454.88 939.687 1438.75 864.186 1437.56 845.782C1436.85 835.086 1436.85 824.355 1437.56 813.659L1528.45 798.83Z" fill="#103976"/>
<g opacity="0.5">
<path d="M1528.45 798.83C1529.42 799.994 1558.16 843.426 1556.16 869.258C1554.17 895.09 1553 904.209 1540.17 919.343C1540.17 919.343 1534.63 1000.72 1534.63 1011.2C1534.63 1012.39 1537.76 1032.18 1539.61 1081.9C1540.78 1112.72 1540.34 1174.56 1540.34 1174.56L1481.66 1175.67C1481.66 1175.67 1476.61 1069.4 1473.9 1061.22C1470.66 1050.83 1468.52 1040.11 1467.52 1029.27C1466.61 1017.68 1454.88 936.583 1454.88 938.135C1454.88 939.687 1438.75 864.186 1437.56 845.782C1436.85 835.086 1436.85 824.355 1437.56 813.659L1528.45 798.83Z" fill="black"/>
</g>
<path d="M1437.62 848.637C1437.62 848.637 1437.62 848.803 1437.62 849.108V850.466C1437.62 851.741 1437.95 853.487 1438.23 855.705C1438.75 860.222 1439.31 866.791 1440.67 874.885C1441.33 878.931 1442.3 883.2 1443.44 887.995C1444.57 892.79 1445.49 897.695 1446.6 902.962C1448.81 913.522 1451.17 925.135 1453.47 937.386C1458.1 961.86 1461.51 984.144 1463.67 1000.33C1464.75 1008.42 1465.56 1014.97 1466.08 1019.51C1466.36 1021.7 1466.58 1023.45 1466.72 1024.72L1466.91 1026.08C1466.91 1026.38 1466.91 1026.52 1466.91 1026.52V1026.05C1466.91 1025.69 1466.91 1025.25 1466.91 1024.69C1466.91 1023.42 1466.66 1021.67 1466.47 1019.46C1466.03 1014.91 1465.33 1008.37 1464.34 1000.25C1462.37 984.033 1459.04 961.694 1454.41 937.22C1452.11 924.969 1449.73 913.355 1447.46 902.795C1446.32 897.529 1445.24 892.512 1444.21 887.828C1443.19 883.144 1442.14 878.793 1441.44 874.774C1440.03 866.764 1439.36 860.167 1438.67 855.649C1438.34 853.459 1438.09 851.713 1437.89 850.466L1437.64 849.108C1437.67 848.803 1437.64 848.637 1437.62 848.637Z" fill="black"/>
<path d="M1446.96 581.613C1447.73 568.503 1456.35 552.344 1469.44 553.675L1510.29 563.958C1512.21 564.151 1513.98 565.056 1515.26 566.492C1516.55 567.928 1517.24 569.793 1517.22 571.718L1516.11 659.054C1516.05 664.574 1514.08 669.903 1510.55 674.144C1507.02 678.385 1502.13 681.278 1496.71 682.336C1493.33 682.983 1489.86 682.897 1486.52 682.084C1483.18 681.272 1480.05 679.751 1477.35 677.625C1474.65 675.499 1472.43 672.817 1470.86 669.761C1469.28 666.706 1468.38 663.347 1468.22 659.913C1467.94 653.926 1467.72 649.436 1467.72 649.464C1467.72 649.492 1450.92 646.692 1447.37 624.879C1445.66 614.014 1446.13 596.192 1446.96 581.613Z" fill="#FFBF9D"/>
<path d="M1452.86 598.993C1452.86 599.728 1453.15 600.433 1453.67 600.953C1454.19 601.473 1454.9 601.765 1455.63 601.765C1456.33 601.767 1457 601.51 1457.51 601.043C1458.02 600.576 1458.34 599.933 1458.4 599.242C1458.4 598.507 1458.11 597.802 1457.59 597.283C1457.07 596.763 1456.37 596.471 1455.63 596.471C1454.94 596.468 1454.27 596.725 1453.76 597.192C1453.24 597.659 1452.92 598.302 1452.86 598.993Z" fill="#263238"/>
<path d="M1450.87 590.871C1451.23 591.231 1453.33 589.652 1456.41 589.652C1459.49 589.652 1461.65 591.148 1461.95 590.76C1462.26 590.372 1461.76 589.957 1460.79 589.264C1459.5 588.362 1457.96 587.879 1456.38 587.879C1454.81 587.879 1453.27 588.362 1451.97 589.264C1451 590.04 1450.7 590.705 1450.87 590.871Z" fill="#263238"/>
<path d="M1479.58 598.355C1479.58 599.09 1479.87 599.795 1480.39 600.315C1480.91 600.834 1481.62 601.126 1482.35 601.126C1483.05 601.129 1483.72 600.867 1484.24 600.394C1484.75 599.922 1485.07 599.272 1485.12 598.576C1485.12 597.841 1484.83 597.136 1484.31 596.617C1483.79 596.097 1483.09 595.805 1482.35 595.805C1481.65 595.802 1480.98 596.064 1480.47 596.537C1479.95 597.009 1479.64 597.659 1479.58 598.355Z" fill="#263238"/>
<path d="M1480.55 591.314C1480.88 591.674 1483.02 590.094 1486.09 590.094C1489.17 590.094 1491.33 591.591 1491.64 591.203C1491.94 590.815 1491.44 590.371 1490.47 589.679C1489.17 588.786 1487.62 588.312 1486.04 588.32C1484.46 588.326 1482.93 588.831 1481.66 589.762C1480.69 590.482 1480.38 591.148 1480.55 591.314Z" fill="#263238"/>
<path d="M1469.69 613.848C1468.09 613.352 1466.44 613.063 1464.78 612.989C1464 612.989 1463.28 612.767 1463.14 612.241C1463.09 611.442 1463.26 610.644 1463.64 609.94L1465.92 604.064C1468 599.088 1469.69 593.954 1470.96 588.709C1468.46 593.498 1466.37 598.486 1464.7 603.621C1463.92 605.709 1463.2 607.677 1462.53 609.524C1462.04 610.459 1461.9 611.544 1462.15 612.573C1462.26 612.842 1462.44 613.082 1462.66 613.274C1462.88 613.466 1463.14 613.605 1463.42 613.682C1463.85 613.799 1464.28 613.855 1464.72 613.848C1466.37 614.06 1468.04 614.06 1469.69 613.848Z" fill="#263238"/>
<path d="M1467.77 649.464C1478.06 649.596 1488.19 646.861 1497.01 641.564C1497.01 641.564 1489.97 656.615 1468.08 654.675L1467.77 649.464Z" fill="#FF9A6C"/>
<path d="M1479.16 578.897C1479.47 579.701 1482.46 579.313 1486.01 579.729C1489.56 580.144 1492.41 581.087 1492.88 580.338C1493.36 579.59 1492.61 579.23 1491.44 578.426C1489.89 577.468 1488.14 576.871 1486.33 576.679C1484.52 576.487 1482.68 576.705 1480.97 577.317C1479.69 577.816 1479.03 578.509 1479.16 578.897Z" fill="#263238"/>
<path d="M1451.89 580.589C1452.42 581.282 1454.5 580.589 1457.02 580.589C1459.54 580.589 1461.62 581.032 1462.12 580.311C1462.62 579.591 1462.12 579.286 1461.07 578.649C1459.83 577.847 1458.38 577.459 1456.91 577.54C1455.44 577.569 1454.02 578.053 1452.83 578.926C1451.95 579.452 1451.67 580.145 1451.89 580.589Z" fill="#263238"/>
<path d="M1437.67 592.59C1437.6 589.126 1438.72 585.742 1440.83 583C1442.19 581.707 1443.48 580.338 1444.68 578.897C1446.99 575.544 1446.43 571.081 1447.26 567.118C1447.85 564.561 1449.03 562.178 1450.71 560.164C1452.39 558.151 1454.52 556.564 1456.94 555.532C1460.95 553.869 1465.61 553.841 1469.35 551.624C1472.12 549.961 1474.15 547.245 1477 545.776C1482.55 543.004 1489.34 545.471 1494.85 548.409C1496.13 552.65 1493.61 556.475 1491.19 560.133C1489.95 561.989 1488.31 563.549 1486.39 564.703C1484.48 565.857 1482.33 566.577 1480.11 566.813C1476.73 567.173 1472.71 566.619 1470.43 569.169C1468.16 571.719 1469.21 576.292 1467.3 579.341C1464.53 583.665 1457.71 582.417 1453.44 585.217C1450.12 587.379 1448.87 591.564 1447.35 595.223C1445.82 598.881 1442.99 602.734 1439.03 602.734C1438.2 599.415 1437.74 596.011 1437.67 592.59Z" fill="#263238"/>
<path d="M1486.73 556.613C1496.68 555.987 1506.66 557.296 1516.11 560.466C1519.02 561.171 1521.63 562.782 1523.57 565.067C1524.9 567.34 1525.55 569.946 1525.45 572.578C1525.23 581.5 1523.45 590.316 1520.21 598.632L1510.29 605.228C1502.34 603.759 1505.3 590.012 1505.33 583.194C1502.53 582.08 1500.11 580.202 1498.33 577.777C1496.55 575.351 1495.49 572.474 1495.27 569.474C1492.97 568.106 1491.02 566.24 1489.54 564.014C1488.06 561.788 1487.1 559.259 1486.73 556.613Z" fill="#263238"/>
<path d="M1510.4 602.29C1510.4 597.606 1516.19 596.414 1520.32 598.632C1522.6 599.851 1524.37 602.373 1524.34 607.362C1524.34 620.611 1510.93 617.784 1510.9 617.396C1510.87 617.008 1510.32 607.778 1510.4 602.29Z" fill="#FFBF9D"/>
<path d="M1515 612.407C1515 612.407 1515.22 612.573 1515.61 612.74C1515.88 612.854 1516.18 612.913 1516.47 612.913C1516.77 612.913 1517.06 612.854 1517.33 612.74C1518.21 612.215 1518.93 611.465 1519.41 610.568C1519.9 609.671 1520.14 608.66 1520.1 607.64C1520.13 606.498 1519.91 605.364 1519.47 604.314C1519.34 603.9 1519.12 603.522 1518.82 603.209C1518.52 602.896 1518.15 602.658 1517.75 602.512C1517.48 602.441 1517.2 602.466 1516.95 602.583C1516.7 602.7 1516.5 602.9 1516.39 603.15C1516.19 603.51 1516.39 603.787 1516.19 603.815C1516 603.843 1515.92 603.566 1516.03 603.039C1516.1 602.709 1516.29 602.416 1516.55 602.207C1516.93 601.938 1517.4 601.819 1517.86 601.875C1518.4 601.994 1518.9 602.247 1519.31 602.61C1519.73 602.973 1520.05 603.435 1520.24 603.954C1520.81 605.108 1521.07 606.384 1521.02 607.668C1521.07 608.851 1520.77 610.024 1520.16 611.039C1519.55 612.054 1518.65 612.867 1517.58 613.377C1517.22 613.473 1516.85 613.488 1516.48 613.421C1516.12 613.354 1515.77 613.206 1515.47 612.989C1515.03 612.712 1514.95 612.435 1515 612.407Z" fill="#FF9A6C"/>
<path d="M1480.99 613.517C1480.49 613.517 1480.99 616.843 1478.5 619.614C1476 622.386 1472.48 622.524 1472.54 622.996C1472.6 623.467 1473.4 623.522 1474.9 623.328C1476.82 623.065 1478.6 622.133 1479.91 620.695C1481.16 619.306 1481.83 617.49 1481.77 615.623C1481.69 614.209 1481.22 613.461 1480.99 613.517Z" fill="#263238"/>
<path d="M1392.44 788.408L1435.59 782.338L1440.36 810.11L1396.4 811.219L1392.44 788.408Z" fill="#FFBF9D"/>
<path d="M1395.54 788.658L1373.37 780.814C1372.09 780.399 1366.63 784.861 1366.63 784.861L1350 798.082C1349.99 798.74 1350.15 799.39 1350.46 799.968C1350.78 800.546 1351.24 801.032 1351.8 801.377C1352.36 801.721 1353 801.913 1353.66 801.933C1354.32 801.954 1354.97 801.801 1355.55 801.491C1356.63 801.131 1360.81 798.498 1361.81 798.082C1364.14 797.053 1366.38 795.848 1368.52 794.479L1363.5 798.415C1362.36 800.198 1361.73 802.258 1361.67 804.374C1360.9 810.111 1365.8 812.218 1366.52 809.28C1367.24 806.342 1368.57 801.463 1368.57 801.463C1368.57 801.463 1368.8 808.005 1372.57 807.339C1372.57 807.339 1373.95 811.414 1377.28 811.053C1379.27 810.838 1381.18 810.123 1382.82 808.975C1382.82 808.975 1392.33 813.936 1396.15 812.883C1399.98 811.83 1406.74 810.111 1406.74 810.111L1395.54 788.658Z" fill="#FFBF9D"/>
<path d="M1372.19 790.942L1350.03 781.297C1349.49 781.065 1348.87 781.309 1348.64 781.843L1345.95 788.018C1345.72 788.552 1345.96 789.172 1346.5 789.404L1368.66 799.049C1369.19 799.282 1369.81 799.037 1370.04 798.504L1372.73 792.328C1372.96 791.795 1372.72 791.175 1372.19 790.942Z" fill="#455A64"/>
<path d="M1359.46 781.95C1359.46 781.95 1370.07 780.149 1371.24 779.982C1376.5 781.878 1381.67 784.052 1386.7 786.496C1386.7 786.496 1387.56 800.354 1385.95 801.879C1384.35 803.403 1376.14 798.331 1371.21 789.157L1363.56 787.438C1363.56 787.438 1357.1 789.378 1354.97 787.438C1352.83 785.498 1353.55 784.445 1353.55 784.445L1359.46 781.95Z" fill="#FFBF9D"/>
<path d="M1389.03 795.976C1389.2 796.115 1388 797.612 1385.18 798.277C1383.54 798.612 1381.85 798.612 1380.22 798.277C1378.18 797.717 1376.39 796.498 1375.12 794.812C1373.2 792.733 1371.71 790.571 1370.21 789.269L1370.54 789.407C1368.12 789.117 1365.76 788.433 1363.56 787.384C1365.99 787.149 1368.44 787.318 1370.82 787.883H1370.99H1371.15C1373.08 789.567 1374.85 791.422 1376.45 793.426C1377.49 794.835 1378.92 795.897 1380.58 796.475C1382.01 796.835 1383.49 796.947 1384.96 796.808C1386.33 796.6 1387.69 796.323 1389.03 795.976Z" fill="#FF9A6C"/>
<path d="M1371.98 806.868C1371.98 806.591 1373.12 806.397 1374.76 805.704C1375.74 805.33 1376.67 804.827 1377.53 804.207C1378.58 803.229 1379.8 802.441 1381.13 801.879C1381.97 801.685 1382.85 801.77 1383.64 802.119C1384.43 802.469 1385.09 803.066 1385.51 803.82C1385.85 804.423 1386 805.112 1385.95 805.801C1385.9 806.49 1385.65 807.15 1385.23 807.7C1383.74 809.501 1382.07 809.03 1382.18 808.808C1382.29 808.587 1383.4 808.42 1384.15 807.007C1384.37 806.657 1384.48 806.254 1384.48 805.843C1384.48 805.432 1384.37 805.029 1384.15 804.679C1383.89 804.276 1383.51 803.962 1383.06 803.774C1382.62 803.587 1382.13 803.535 1381.66 803.625C1380.54 804.158 1379.5 804.829 1378.55 805.621C1377.56 806.234 1376.47 806.684 1375.34 806.952C1373.26 807.367 1371.98 807.09 1371.98 806.868Z" fill="#FF9A6C"/>
<path d="M1369.43 802.129C1369.27 801.935 1369.99 800.909 1371.48 799.607C1372.36 798.846 1373.28 798.152 1374.26 797.528C1375.57 796.574 1377.19 796.13 1378.8 796.281C1379.73 796.414 1380.58 796.864 1381.21 797.556C1381.51 797.897 1381.74 798.299 1381.87 798.733C1382.01 799.168 1382.05 799.626 1381.99 800.078C1381.79 801.401 1381.1 802.599 1380.05 803.432C1378.47 804.679 1377.58 805.316 1377.28 805.206C1376.97 805.095 1377.78 803.931 1379.05 802.434C1379.72 801.727 1380.14 800.822 1380.24 799.856C1380.24 798.941 1379.61 798.193 1378.41 797.999C1377.21 797.916 1376.01 798.228 1375 798.886C1373.92 799.468 1372.93 800.05 1372.23 800.549C1370.63 801.63 1369.63 802.323 1369.43 802.129Z" fill="#FF9A6C"/>
<path d="M1474.45 891.126L1504.5 810.692L1470.32 801.795L1455.05 887.44L1474.45 891.126Z" fill="#FFBF9D"/>
<path d="M1455.13 946.977L1443.52 933.313L1442.05 915.38L1455.55 887.441H1474.29C1474.29 887.441 1477.06 897.697 1476 902.048C1474.95 906.4 1473.23 916.073 1473.23 916.073L1471.79 926.522L1473.98 930.901L1477.75 934.782C1477.75 934.782 1477.36 938.163 1474.2 937.193C1471.56 935.99 1469.18 934.286 1467.19 932.176L1464.42 925.33V932.176L1472.18 939.854C1472.18 939.854 1471.43 943.485 1468.52 942.626L1465.75 941.683C1465.75 941.683 1465.25 944.455 1461.87 943.596C1459.75 942.982 1457.69 942.175 1455.72 941.184C1456.27 942.08 1456.51 943.132 1456.4 944.179C1456.3 945.226 1455.85 946.209 1455.13 946.977Z" fill="#FFBF9D"/>
<path d="M1455.49 914.658C1455.1 916.229 1454.88 917.836 1454.83 919.453C1454.83 920.95 1454.55 922.696 1454.41 924.664C1454.41 925.662 1454.41 926.715 1454.25 927.768C1454.16 928.912 1454.16 930.061 1454.25 931.205C1455.13 933.259 1456.51 935.06 1458.27 936.444C1459.59 937.615 1461.03 938.655 1462.56 939.548C1463.9 940.452 1465.3 941.258 1466.75 941.959C1465.62 940.797 1464.33 939.799 1462.92 938.994C1461.49 938.038 1460.14 936.972 1458.88 935.806C1457.29 934.508 1456.03 932.857 1455.19 930.983C1455.19 930.069 1455.19 928.821 1455.19 927.796C1455.19 926.77 1455.19 925.717 1455.19 924.719C1455.19 922.835 1455.33 921.088 1455.38 919.509C1455.58 917.899 1455.62 916.275 1455.49 914.658Z" fill="#FF9A6C"/>
<path d="M1447.73 915.102C1447.22 916.534 1446.87 918.023 1446.71 919.536C1446.46 920.894 1446.18 922.53 1445.88 924.359C1445.88 925.301 1445.63 926.244 1445.46 927.131C1445.29 928.203 1445.2 929.287 1445.18 930.374C1445.84 932.363 1446.98 934.155 1448.51 935.584C1449.65 936.789 1450.92 937.876 1452.28 938.827C1453.46 939.775 1454.71 940.637 1456.02 941.405C1455.05 940.228 1453.94 939.185 1452.69 938.3C1451.44 937.294 1450.26 936.191 1449.17 935.002C1447.81 933.651 1446.77 932.012 1446.13 930.207C1446.17 929.215 1446.26 928.225 1446.4 927.242C1446.4 926.271 1446.65 925.301 1446.76 924.47L1447.37 919.592C1447.65 918.112 1447.77 916.607 1447.73 915.102Z" fill="#FF9A6C"/>
<path d="M1517.22 653.843C1519.66 656.892 1534.32 671.249 1538.62 705.507C1542.91 739.765 1549.18 801.657 1542.94 808.253C1537.65 813.797 1524.54 806.424 1524.54 806.424L1506.63 808.724L1438.92 813.824C1438.92 813.824 1431.55 815.626 1431.55 800.936C1431.55 786.246 1437.94 747.403 1446.5 728.5C1455.06 709.597 1456.69 684.609 1456.69 684.609L1464.64 671.748L1465.25 662.574L1516.75 646.498L1517.22 653.843Z" fill="#455A64"/>
<path d="M1530.88 676.394C1536.47 686.489 1541.54 704.122 1535.36 731.881C1524.43 781.142 1498.55 870.101 1485.36 894.837L1444.83 882.094L1466.82 817.609C1466.82 817.609 1481.75 716.201 1482.55 707.368C1482.98 702.369 1489.21 686.942 1498.09 675.951" fill="#455A64"/>
<path d="M1498.75 675.677C1496.68 678.056 1494.78 680.697 1493.05 683.561C1490.95 686.936 1489.04 690.522 1487.34 694.282C1486.21 696.702 1485.22 699.223 1484.36 701.823C1483.87 703.225 1483.5 704.684 1483.24 706.171C1483.01 707.695 1482.77 709.219 1482.52 710.821C1479.17 736.425 1474 772.75 1467.88 815.769C1461.25 835.349 1453.93 856.902 1446.27 879.524L1446.02 880.245L1446.57 880.33L1471.72 888.202L1487.3 892.959L1487.62 893.01L1487.69 892.58C1491.07 885.741 1494.09 878.596 1496.72 871.21C1499.35 864.013 1501.74 856.822 1504.12 849.748C1508.76 835.622 1512.9 821.858 1516.68 808.721C1524.2 782.438 1530.3 758.817 1534.91 738.565C1537.23 729.638 1538.65 720.425 1539.12 711.212C1539.36 704.209 1538.71 697.337 1537.2 690.916C1536.25 686.938 1534.95 683.19 1533.31 679.758C1532.75 678.548 1532.12 677.408 1531.43 676.348C1531.43 676.348 1531.57 676.69 1531.88 677.257C1532.18 677.824 1532.63 678.733 1533.15 679.932C1534.77 683.398 1536.07 687.17 1537.02 691.169C1538.46 697.503 1539.05 704.272 1538.76 711.158C1538.33 720.371 1536.91 729.593 1534.55 738.51C1529.93 758.519 1523.73 782.245 1516.16 808.48C1512.35 821.574 1508.23 835.26 1503.57 849.464C1501.27 856.523 1498.8 863.65 1496.16 870.844C1493.6 878.161 1490.64 885.236 1487.3 892L1487.82 891.72L1472.28 886.967L1447.12 879.095L1447.38 879.974C1455.07 857.157 1462.31 835.791 1468.91 816.207C1474.92 773.132 1480 736.833 1483.2 711.165C1483.65 705.457 1485.19 699.858 1487.65 694.97C1489.34 691.222 1491.21 687.632 1493.26 684.232C1494.92 681.448 1496.34 679.467 1497.28 678.131L1498.37 676.66C1498.64 675.86 1498.78 675.682 1498.75 675.677Z" fill="#263238"/>
<path d="M1466.58 663.433C1466.9 664.137 1467.26 664.821 1467.66 665.484C1468.38 666.815 1469.38 668.755 1470.43 671.166V671.416H1470.71C1477.34 669.933 1483.88 668.082 1490.31 665.872C1497.93 663.267 1504.66 660.495 1509.49 658.361C1511.9 657.308 1513.81 656.393 1515.03 655.728C1515.73 655.423 1516.4 655.052 1517.03 654.619C1516.28 654.79 1515.55 655.05 1514.86 655.395L1509.1 657.751C1504.25 659.719 1497.49 662.352 1489.89 664.958C1482.3 667.563 1475.51 669.531 1470.49 670.806L1470.88 670.972C1469.63 668.588 1468.52 666.676 1467.72 665.429C1467.45 664.707 1467.06 664.033 1466.58 663.433Z" fill="#263238"/>
<g opacity="0.3">
<path d="M1497.49 664.599C1487.73 669.227 1478.08 673.856 1468.3 678.596C1467.94 673.856 1467.58 669.117 1467.19 664.377C1468.98 666.557 1470.29 669.088 1471.04 671.805C1471.52 671.192 1472.1 670.678 1472.77 670.293C1473.44 669.908 1474.18 669.659 1474.95 669.56C1481.94 667.786 1489.2 666.788 1495.79 664.017C1498.12 663.019 1500.37 661.799 1502.67 660.746C1503.78 660.233 1504.92 659.789 1506.08 659.416C1506.72 659.222 1507.96 658.695 1508.57 659.222C1507.85 659.769 1507.03 660.182 1506.16 660.441L1503.2 661.855L1497.49 664.599Z" fill="black"/>
</g>
<g opacity="0.3">
<path d="M1527.72 714.321L1528.45 701.932C1535.12 737.769 1527.86 773.995 1511.15 806.479C1517.05 776.019 1523.57 748.136 1527.72 714.321Z" fill="black"/>
</g>
<path d="M1332.85 787.106C1332.63 787.106 1332.07 786.357 1331.88 784.75C1331.64 782.626 1332.18 780.489 1333.4 778.735C1334.63 776.996 1336.42 775.74 1338.47 775.187C1340.05 774.827 1341.02 775.187 1341.05 775.187C1341.08 775.187 1337.31 776.213 1334.9 779.705C1332.49 783.198 1333.35 787.05 1332.85 787.106Z" fill="#263238"/>
<path d="M1320.71 787.438C1319.48 786.071 1318.74 784.337 1318.6 782.504C1318.2 780.324 1318.24 778.085 1318.71 775.919C1319.19 773.753 1320.09 771.704 1321.37 769.893C1322.73 767.828 1324.58 766.133 1326.75 764.96C1328.55 764.095 1330.48 763.551 1332.46 763.352C1334.22 763.044 1336.02 763.044 1337.78 763.352C1336.16 764.059 1334.42 764.481 1332.65 764.599C1330.87 764.943 1329.15 765.55 1327.55 766.401C1325.66 767.506 1324.05 769.045 1322.87 770.891C1320.54 774.219 1319.47 778.266 1319.85 782.31C1320.13 785.47 1320.99 787.299 1320.71 787.438Z" fill="#263238"/>
<path d="M1306.38 782.423C1305.1 780.372 1304.45 777.991 1304.52 775.577C1304.35 772.659 1304.76 769.737 1305.73 766.979C1306.69 764.221 1308.19 761.68 1310.14 759.504C1312.09 757.327 1314.45 755.558 1317.09 754.297C1319.73 753.036 1322.58 752.308 1325.5 752.156C1327.9 751.836 1330.33 752.211 1332.52 753.237C1332.52 753.542 1329.74 752.904 1325.61 753.431C1320.15 754.014 1315.1 756.606 1311.44 760.703C1307.78 764.799 1305.77 770.11 1305.8 775.604C1305.74 779.789 1306.68 782.339 1306.38 782.423Z" fill="#263238"/>
</svg>
